<svg width="1080" height="1080" viewBox="0 0 1080 1080" fill="none" xmlns="http://www.w3.org/2000/svg">
<g clip-path="url(#clip0)">
<rect width="1079" height="1080" fill="#003F5C"/>
<circle cx="179" cy="101" r="72" fill="#FBECEF"/>
<circle cx="107" cy="538.5" r="72" fill="#FBECEF"/>
<circle r="72" transform="matrix(-1 0 0 1 467.5 683.5)" fill="#FBECEF"/>
<circle r="72" transform="matrix(-1 0 0 1 469.5 973)" fill="#FBECEF"/>
<circle cx="323" cy="392" r="72" fill="white"/>
<circle cx="323" cy="828" r="72" fill="white"/>
<circle cx="323" cy="1117" r="72" fill="white"/>
<circle cx="611" cy="105" r="72" fill="#FF6631"/>
<circle cx="35" cy="249" r="72" fill="#FBECEF"/>
<path d="M34 101C34 140.765 66.2355 173 106 173V29C66.2355 29 34 61.2355 34 101Z" fill="#FBECEF"/>
<path d="M179 248C179 287.765 211.235 320 251 320V176C211.235 176 179 208.235 179 248Z" fill="#FBECEF"/>
<path d="M466 828C466 867.765 498.235 900 538 900V756C498.235 756 466 788.235 466 828Z" fill="#FBECEF"/>
<path d="M466 1117C466 1156.76 498.235 1189 538 1189V1045C498.235 1045 466 1077.24 466 1117Z" fill="#FBECEF"/>
<path d="M179 392C179 431.765 211.235 464 251 464V320C211.235 320 179 352.235 179 392Z" fill="#FBECEF"/>
<path d="M179 828C179 867.765 211.235 900 251 900V756C211.235 756 179 788.235 179 828Z" fill="#FBECEF"/>
<path d="M179 1117C179 1156.76 211.235 1189 251 1189V1045C211.235 1045 179 1077.24 179 1117Z" fill="#FBECEF"/>
<path d="M253 536C253 575.765 285.235 608 325 608V464C285.235 464 253 496.235 253 536Z" fill="#FBECEF"/>
<path d="M321.5 681C321.5 720.765 289.265 753 249.5 753V609C289.265 609 321.5 641.235 321.5 681Z" fill="#FBECEF"/>
<path d="M323.5 973C323.5 1012.76 291.265 1045 251.5 1045V901C291.265 901 323.5 933.235 323.5 973Z" fill="#FBECEF"/>
<path d="M33.5 394C73.2645 394 105.5 361.764 105.5 322L-38.5 322C-38.5 361.765 -6.2645 394 33.5 394Z" fill="#FBECEF"/>
<path d="M33.5 828C73.2645 828 105.5 795.764 105.5 756L-38.5 756C-38.5 795.765 -6.2645 828 33.5 828Z" fill="#FBECEF"/>
<path d="M33.5 1117C73.2645 1117 105.5 1084.76 105.5 1045L-38.5 1045C-38.5 1084.76 -6.2645 1117 33.5 1117Z" fill="#FBECEF"/>
<path d="M323 248C362.765 248 395 215.764 395 176L251 176C251 215.765 283.235 248 323 248Z" fill="#0A5578"/>
<path d="M468 104C507.765 104 540 71.7645 540 32L396 32C396 71.7645 428.235 104 468 104Z" fill="#0A5578"/>
<path d="M755.5 104C795.265 104 827.5 71.7645 827.5 32L683.5 32C683.5 71.7645 715.735 104 755.5 104Z" fill="#0A5578"/>
<path d="M467.5 248C467.5 287.765 499.735 320 539.5 320L539.5 176C499.735 176 467.5 208.235 467.5 248Z" fill="#0A5578"/>
<path d="M467.5 392C467.5 431.765 499.735 464 539.5 464L539.5 320C499.735 320 467.5 352.235 467.5 392Z" fill="#0A5578"/>
<path d="M755 392C755 431.765 787.235 464 827 464L827 320C787.235 320 755 352.235 755 392Z" fill="#0A5578"/>
<path d="M755 679C755 718.765 787.235 751 827 751L827 607C787.235 607 755 639.235 755 679Z" fill="#0A5578"/>
<path d="M755 966C755 1005.76 787.235 1038 827 1038L827 894C787.235 894 755 926.235 755 966Z" fill="#0A5578"/>
<path d="M612 248C612 287.765 644.235 320 684 320L684 176C644.235 176 612 208.235 612 248Z" fill="#0A5578"/>
<path d="M612 535C612 574.765 644.235 607 684 607L684 463C644.235 463 612 495.235 612 535Z" fill="#0A5578"/>
<path d="M612 822C612 861.765 644.235 894 684 894L684 750C644.235 750 612 782.235 612 822Z" fill="#0A5578"/>
<path d="M612 1110C612 1149.76 644.235 1182 684 1182L684 1038C644.235 1038 612 1070.24 612 1110Z" fill="#0A5578"/>
<path d="M899.5 248C899.5 287.765 931.735 320 971.5 320L971.5 176C931.735 176 899.5 208.235 899.5 248Z" fill="#0A5578"/>
<path d="M899.5 535C899.5 574.765 931.735 607 971.5 607L971.5 463C931.735 463 899.5 495.235 899.5 535Z" fill="#0A5578"/>
<path d="M899.5 822C899.5 861.765 931.735 894 971.5 894L971.5 750C931.735 750 899.5 782.235 899.5 822Z" fill="#0A5578"/>
<path d="M107 249C107 288.765 139.235 321 179 321V177C139.235 177 107 209.235 107 249Z" fill="#FBECEF"/>
<path d="M394 828C394 867.765 426.235 900 466 900V756C426.235 756 394 788.235 394 828Z" fill="#FBECEF"/>
<path d="M394 1117C394 1156.76 426.235 1189 466 1189V1045C426.235 1045 394 1077.24 394 1117Z" fill="#FBECEF"/>
<path d="M178 394.5C178 434.265 145.765 466.5 106 466.5V322.5C145.765 322.5 178 354.735 178 394.5Z" fill="#FBECEF"/>
<path d="M178 828C178 867.765 145.765 900 106 900V756C145.765 756 178 788.235 178 828Z" fill="#FBECEF"/>
<path d="M178 1117C178 1156.76 145.765 1189 106 1189V1045C145.765 1045 178 1077.24 178 1117Z" fill="#FBECEF"/>
<path d="M252 536C252 575.765 219.765 608 180 608V464C219.765 464 252 496.235 252 536Z" fill="#FBECEF"/>
<path d="M322.5 681C322.5 720.765 354.735 753 394.5 753V609C354.735 609 322.5 641.235 322.5 681Z" fill="#FBECEF"/>
<path d="M324.5 973C324.5 1012.76 356.735 1045 396.5 1045V901C356.735 901 324.5 933.235 324.5 973Z" fill="#FBECEF"/>
<path d="M33.5 395C73.2645 395 105.5 427.235 105.5 467L-38.5 467C-38.5 427.235 -6.2645 395 33.5 395Z" fill="#FBECEF"/>
<path d="M33.5 828C73.2645 828 105.5 860.235 105.5 900L-38.5 900C-38.5 860.235 -6.2645 828 33.5 828Z" fill="#FBECEF"/>
<path d="M323 248C362.765 248 395 280.235 395 320L251 320C251 280.235 283.235 248 323 248Z" fill="#0A5578"/>
<path d="M468 105C507.765 105 540 137.235 540 177L396 177C396 137.235 428.235 105 468 105Z" fill="#0A5578"/>
<path d="M755.5 105C795.265 105 827.5 137.235 827.5 177L683.5 177C683.5 137.235 715.735 105 755.5 105Z" fill="#0A5578"/>
<path d="M466.5 248C466.5 287.765 434.265 320 394.5 320L394.5 176C434.265 176 466.5 208.235 466.5 248Z" fill="#0A5578"/>
<path d="M754 248C754 287.765 721.765 320 682 320L682 176C721.765 176 754 208.235 754 248Z" fill="#0A5578"/>
<path d="M754 535C754 574.765 721.765 607 682 607L682 463C721.765 463 754 495.235 754 535Z" fill="#0A5578"/>
<path d="M754 822C754 861.765 721.765 894 682 894L682 750C721.765 750 754 782.235 754 822Z" fill="#0A5578"/>
<path d="M754 1110C754 1149.76 721.765 1182 682 1182L682 1038C721.765 1038 754 1070.24 754 1110Z" fill="#0A5578"/>
<path d="M466.5 392C466.5 431.765 434.265 464 394.5 464L394.5 320C434.265 320 466.5 352.235 466.5 392Z" fill="#0A5578"/>
<path d="M754 392C754 431.765 721.765 464 682 464L682 320C721.765 320 754 352.235 754 392Z" fill="#0A5578"/>
<path d="M754 679C754 718.765 721.765 751 682 751L682 607C721.765 607 754 639.235 754 679Z" fill="#0A5578"/>
<path d="M754 966C754 1005.76 721.765 1038 682 1038L682 894C721.765 894 754 926.235 754 966Z" fill="#0A5578"/>
<path d="M611 248C611 287.765 578.765 320 539 320L539 176C578.765 176 611 208.235 611 248Z" fill="#0A5578"/>
<path d="M611 535C611 574.765 578.765 607 539 607L539 463C578.765 463 611 495.235 611 535Z" fill="#0A5578"/>
<path d="M611 822C611 861.765 578.765 894 539 894L539 750C578.765 750 611 782.235 611 822Z" fill="#0A5578"/>
<path d="M611 1110C611 1149.76 578.765 1182 539 1182L539 1038C578.765 1038 611 1070.24 611 1110Z" fill="#0A5578"/>
<path d="M898.5 248C898.5 287.765 866.265 320 826.5 320L826.5 176C866.265 176 898.5 208.235 898.5 248Z" fill="#0A5578"/>
<path d="M898.5 535C898.5 574.765 866.265 607 826.5 607L826.5 463C866.265 463 898.5 495.235 898.5 535Z" fill="#0A5578"/>
<path d="M898.5 822C898.5 861.765 866.265 894 826.5 894L826.5 750C866.265 750 898.5 782.235 898.5 822Z" fill="#0A5578"/>
<path d="M898.5 1110C898.5 1149.76 866.265 1182 826.5 1182L826.5 1038C866.265 1038 898.5 1070.24 898.5 1110Z" fill="#0A5578"/>
<path d="M-39 101C-39 140.765 -6.7645 173 33 173V29C-6.7645 29 -39 61.2355 -39 101Z" fill="#FBECEF"/>
<path d="M467.5 536C467.5 575.765 499.735 608 539.5 608L539.5 464C499.735 464 467.5 496.235 467.5 536Z" fill="white"/>
<path d="M107 681C107 720.765 74.7645 753 35 753L35 609C74.7645 609 107 641.235 107 681Z" fill="white"/>
<path d="M109 973C109 1012.76 76.7645 1045 37 1045L37 901C76.7645 901 109 933.235 109 973Z" fill="white"/>
<path d="M466.5 536C466.5 575.765 434.265 608 394.5 608L394.5 464C434.265 464 466.5 496.235 466.5 536Z" fill="white"/>
<path d="M108 681C108 720.765 140.235 753 180 753L180 609C140.235 609 108 641.235 108 681Z" fill="white"/>
<path d="M110 973C110 1012.76 142.235 1045 182 1045L182 901C142.235 901 110 933.235 110 973Z" fill="white"/>
<path d="M610.5 392C570.735 392 538.5 424.235 538.5 464L682.5 464C682.5 424.235 650.265 392 610.5 392Z" fill="#0A5578"/>
<path d="M610.5 679C570.735 679 538.5 711.235 538.5 751L682.5 751C682.5 711.235 650.265 679 610.5 679Z" fill="#0A5578"/>
<path d="M610.5 966C570.735 966 538.5 998.235 538.5 1038L682.5 1038C682.5 998.235 650.265 966 610.5 966Z" fill="#0A5578"/>
<path d="M898 392C858.235 392 826 424.235 826 464L970 464C970 424.235 937.765 392 898 392Z" fill="#0A5578"/>
<path d="M898 679C858.235 679 826 711.235 826 751L970 751C970 711.235 937.765 679 898 679Z" fill="#0A5578"/>
<path d="M898 966C858.235 966 826 998.235 826 1038L970 1038C970 998.235 937.765 966 898 966Z" fill="#0A5578"/>
<path d="M610.5 391.5C570.735 391.5 538.5 359.264 538.5 319.5L682.5 319.5C682.5 359.265 650.265 391.5 610.5 391.5Z" fill="#0A5578"/>
<path d="M610.5 678.5C570.735 678.5 538.5 646.264 538.5 606.5L682.5 606.5C682.5 646.265 650.265 678.5 610.5 678.5Z" fill="#0A5578"/>
<path d="M610.5 965.5C570.735 965.5 538.5 933.264 538.5 893.5L682.5 893.5C682.5 933.265 650.265 965.5 610.5 965.5Z" fill="#0A5578"/>
<path d="M898 391.5C858.235 391.5 826 359.264 826 319.5L970 319.5C970 359.265 937.765 391.5 898 391.5Z" fill="#0A5578"/>
<path d="M898 678.5C858.235 678.5 826 646.264 826 606.5L970 606.5C970 646.265 937.765 678.5 898 678.5Z" fill="#0A5578"/>
<path d="M898 965.5C858.235 965.5 826 933.264 826 893.5L970 893.5C970 933.265 937.765 965.5 898 965.5Z" fill="#0A5578"/>
<circle cx="467" cy="-39" r="72" fill="#0A5578"/>
<circle cx="754.5" cy="-39" r="72" fill="#0A5578"/>
<path d="M1043.5 104C1083.26 104 1115.5 71.7645 1115.5 32L971.5 32C971.5 71.7645 1003.74 104 1043.5 104Z" fill="#0A5578"/>
<path d="M1043 392C1043 431.765 1075.24 464 1115 464L1115 320C1075.24 320 1043 352.235 1043 392Z" fill="#0A5578"/>
<path d="M1043 679C1043 718.765 1075.24 751 1115 751L1115 607C1075.24 607 1043 639.235 1043 679Z" fill="#0A5578"/>
<path d="M1043 966C1043 1005.76 1075.24 1038 1115 1038L1115 894C1075.24 894 1043 926.235 1043 966Z" fill="#0A5578"/>
<path d="M1043.5 105C1083.26 105 1115.5 137.235 1115.5 177L971.5 177C971.5 137.235 1003.74 105 1043.5 105Z" fill="#0A5578"/>
<path d="M1042 248C1042 287.765 1009.76 320 970 320L970 176C1009.76 176 1042 208.235 1042 248Z" fill="#0A5578"/>
<path d="M1042 535C1042 574.765 1009.76 607 970 607L970 463C1009.76 463 1042 495.235 1042 535Z" fill="#0A5578"/>
<path d="M1042 822C1042 861.765 1009.76 894 970 894L970 750C1009.76 750 1042 782.235 1042 822Z" fill="#0A5578"/>
<path d="M1042 1110C1042 1149.76 1009.76 1182 970 1182L970 1038C1009.76 1038 1042 1070.24 1042 1110Z" fill="#0A5578"/>
<path d="M1042 392C1042 431.765 1009.76 464 970 464L970 320C1009.76 320 1042 352.235 1042 392Z" fill="#0A5578"/>
<path d="M1042 679C1042 718.765 1009.76 751 970 751L970 607C1009.76 607 1042 639.235 1042 679Z" fill="#0A5578"/>
<path d="M1042 966C1042 1005.76 1009.76 1038 970 1038L970 894C1009.76 894 1042 926.235 1042 966Z" fill="#0A5578"/>
<circle cx="1042.5" cy="-39" r="72" fill="#0A5578"/>
</g>
<defs>
<clipPath id="clip0">
<rect width="1080" height="1080" fill="white"/>
</clipPath>
</defs>
</svg>
