<svg width="649" height="577" viewBox="0 0 649 577" fill="none" xmlns="http://www.w3.org/2000/svg">
<g clip-path="url(#clip0)">
<rect width="648" height="577" fill="#003F5C"/>
<circle cx="179" cy="101" r="72" fill="#FBECEF"/>
<circle cx="107" cy="538.5" r="72" fill="#FBECEF"/>
<circle cx="323" cy="392" r="72" fill="white"/>
<circle cx="611" cy="105" r="72" fill="#FF6631"/>
<circle cx="35" cy="249" r="72" fill="#FBECEF"/>
<path d="M34 101C34 140.765 66.2355 173 106 173V29C66.2355 29 34 61.2355 34 101Z" fill="#FBECEF"/>
<path d="M179 248C179 287.765 211.235 320 251 320V176C211.235 176 179 208.235 179 248Z" fill="#FBECEF"/>
<path d="M179 392C179 431.765 211.235 464 251 464V320C211.235 320 179 352.235 179 392Z" fill="#FBECEF"/>
<path d="M253 536C253 575.765 285.235 608 325 608V464C285.235 464 253 496.235 253 536Z" fill="#FBECEF"/>
<path d="M33.5 394C73.2645 394 105.5 361.764 105.5 322L-38.5 322C-38.5 361.765 -6.2645 394 33.5 394Z" fill="#FBECEF"/>
<path d="M323 248C362.765 248 395 215.764 395 176L251 176C251 215.765 283.235 248 323 248Z" fill="#0A5578"/>
<path d="M468 104C507.765 104 540 71.7645 540 32L396 32C396 71.7645 428.235 104 468 104Z" fill="#0A5578"/>
<path d="M467.5 248C467.5 287.765 499.735 320 539.5 320L539.5 176C499.735 176 467.5 208.235 467.5 248Z" fill="#0A5578"/>
<path d="M467.5 392C467.5 431.765 499.735 464 539.5 464L539.5 320C499.735 320 467.5 352.235 467.5 392Z" fill="#0A5578"/>
<path d="M612 248C612 287.765 644.235 320 684 320L684 176C644.235 176 612 208.235 612 248Z" fill="#0A5578"/>
<path d="M107 249C107 288.765 139.235 321 179 321V177C139.235 177 107 209.235 107 249Z" fill="#FBECEF"/>
<path d="M178 394.5C178 434.265 145.765 466.5 106 466.5V322.5C145.765 322.5 178 354.735 178 394.5Z" fill="#FBECEF"/>
<path d="M252 536C252 575.765 219.765 608 180 608V464C219.765 464 252 496.235 252 536Z" fill="#FBECEF"/>
<path d="M33.5 395C73.2645 395 105.5 427.235 105.5 467L-38.5 467C-38.5 427.235 -6.2645 395 33.5 395Z" fill="#FBECEF"/>
<path d="M323 248C362.765 248 395 280.235 395 320L251 320C251 280.235 283.235 248 323 248Z" fill="#0A5578"/>
<path d="M468 105C507.765 105 540 137.235 540 177L396 177C396 137.235 428.235 105 468 105Z" fill="#0A5578"/>
<path d="M466.5 248C466.5 287.765 434.265 320 394.5 320L394.5 176C434.265 176 466.5 208.235 466.5 248Z" fill="#0A5578"/>
<path d="M466.5 392C466.5 431.765 434.265 464 394.5 464L394.5 320C434.265 320 466.5 352.235 466.5 392Z" fill="#0A5578"/>
<path d="M611 248C611 287.765 578.765 320 539 320L539 176C578.765 176 611 208.235 611 248Z" fill="#0A5578"/>
<path d="M-39 101C-39 140.765 -6.7645 173 33 173V29C-6.7645 29 -39 61.2355 -39 101Z" fill="#FBECEF"/>
<path d="M467.5 536C467.5 575.765 499.735 608 539.5 608L539.5 464C499.735 464 467.5 496.235 467.5 536Z" fill="white"/>
<path d="M466.5 536C466.5 575.765 434.265 608 394.5 608L394.5 464C434.265 464 466.5 496.235 466.5 536Z" fill="white"/>
<path d="M610.5 392C570.735 392 538.5 424.235 538.5 464L682.5 464C682.5 424.235 650.265 392 610.5 392Z" fill="#0A5578"/>
<path d="M610.5 391.5C570.735 391.5 538.5 359.264 538.5 319.5L682.5 319.5C682.5 359.265 650.265 391.5 610.5 391.5Z" fill="#0A5578"/>
<circle cx="467" cy="-39" r="72" fill="#0A5578"/>
</g>
<defs>
<clipPath id="clip0">
<rect width="649" height="577" fill="white"/>
</clipPath>
</defs>
</svg>
