<svg width="649" height="577" viewBox="0 0 649 577" fill="none" xmlns="http://www.w3.org/2000/svg">
<g clip-path="url(#clip0)">
<rect width="648" height="577" fill="#FF6631"/>
<rect x="34" y="28" width="179" height="49" rx="4" fill="#FBECEF"/>
<rect x="34" y="247" width="179" height="49" rx="4" fill="#FBECEF"/>
<rect x="34" y="539" width="179" height="49" rx="4" fill="#FBECEF"/>
<rect x="252" y="28" width="179" height="49" rx="4" fill="#003F5C"/>
<rect x="470" y="174" width="179" height="49" rx="4" fill="#0B5678"/>
<rect x="252" y="247" width="179" height="49" rx="4" fill="#003F5C"/>
<rect x="470" y="393" width="179" height="49" rx="4" fill="#0B5678"/>
<rect x="34" y="101" width="179" height="49" rx="4" fill="#FBECEF"/>
<rect x="34" y="393" width="179" height="49" rx="4" fill="#FBECEF"/>
<rect x="34" y="320" width="179" height="49" rx="4" fill="#FBECEF"/>
<rect x="252" y="101" width="179" height="49" rx="4" fill="#003F5C"/>
<rect x="470" y="247" width="179" height="49" rx="4" fill="#0B5678"/>
<rect x="252" y="320" width="179" height="49" rx="4" fill="#003F5C"/>
<rect x="470" y="466" width="179" height="49" rx="4" fill="#0B5678"/>
<rect x="34" y="174" width="179" height="49" rx="4" fill="#FBECEF"/>
<rect x="34" y="466" width="179" height="49" rx="4" fill="#FBECEF"/>
<rect x="252" y="174" width="179" height="49" rx="4" fill="#003F5C"/>
<rect x="470" y="320" width="179" height="49" rx="4" fill="#0B5678"/>
<rect x="252" y="393" width="179" height="49" rx="4" fill="#003F5C"/>
<rect x="470" y="539" width="179" height="49" rx="4" fill="#0B5678"/>
</g>
<defs>
<clipPath id="clip0">
<rect width="649" height="577" fill="white"/>
</clipPath>
</defs>
</svg>
