<svg width="1080" height="1080" viewBox="0 0 1080 1080" fill="none" xmlns="http://www.w3.org/2000/svg">
<g clip-path="url(#clip0)">
<rect width="1079" height="1080" fill="#FF6631"/>
<rect x="219" y="588" width="1079" height="1080" fill="#FF6631"/>
<rect x="34" y="28" width="179" height="49" rx="4" fill="#FBECEF"/>
<rect x="253" y="616" width="179" height="49" rx="4" fill="#FBECEF"/>
<rect x="688" y="28" width="179" height="49" rx="4" fill="#FBECEF"/>
<rect x="907" y="616" width="179" height="49" rx="4" fill="#FBECEF"/>
<rect x="34" y="247" width="179" height="49" rx="4" fill="#FBECEF"/>
<rect x="253" y="835" width="179" height="49" rx="4" fill="#FBECEF"/>
<rect x="688" y="247" width="179" height="49" rx="4" fill="#FBECEF"/>
<rect x="907" y="835" width="179" height="49" rx="4" fill="#FBECEF"/>
<rect x="34" y="539" width="179" height="49" rx="4" fill="#FBECEF"/>
<rect x="688" y="539" width="179" height="49" rx="4" fill="#FBECEF"/>
<rect x="252" y="28" width="179" height="49" rx="4" fill="#003F5C"/>
<rect x="471" y="616" width="179" height="49" rx="4" fill="#003F5C"/>
<rect x="906" y="28" width="179" height="49" rx="4" fill="#003F5C"/>
<rect x="470" y="174" width="179" height="49" rx="4" fill="#0B5678"/>
<rect x="689" y="762" width="179" height="49" rx="4" fill="#0B5678"/>
<rect x="34" y="762" width="179" height="49" rx="4" fill="#0B5678"/>
<rect x="252" y="247" width="179" height="49" rx="4" fill="#003F5C"/>
<rect x="471" y="835" width="179" height="49" rx="4" fill="#003F5C"/>
<rect x="906" y="247" width="179" height="49" rx="4" fill="#003F5C"/>
<rect x="470" y="393" width="179" height="49" rx="4" fill="#0B5678"/>
<rect x="689" y="981" width="179" height="49" rx="4" fill="#0B5678"/>
<rect x="34" y="981" width="179" height="49" rx="4" fill="#0B5678"/>
<rect x="34" y="101" width="179" height="49" rx="4" fill="#FBECEF"/>
<rect x="253" y="689" width="179" height="49" rx="4" fill="#FBECEF"/>
<rect x="688" y="101" width="179" height="49" rx="4" fill="#FBECEF"/>
<rect x="907" y="689" width="179" height="49" rx="4" fill="#FBECEF"/>
<rect x="34" y="393" width="179" height="49" rx="4" fill="#FBECEF"/>
<rect x="253" y="981" width="179" height="49" rx="4" fill="#FBECEF"/>
<rect x="688" y="393" width="179" height="49" rx="4" fill="#FBECEF"/>
<rect x="907" y="981" width="179" height="49" rx="4" fill="#FBECEF"/>
<rect x="34" y="320" width="179" height="49" rx="4" fill="#FBECEF"/>
<rect x="253" y="908" width="179" height="49" rx="4" fill="#FBECEF"/>
<rect x="688" y="320" width="179" height="49" rx="4" fill="#FBECEF"/>
<rect x="907" y="908" width="179" height="49" rx="4" fill="#FBECEF"/>
<rect x="34" y="612" width="179" height="49" rx="4" fill="#FBECEF"/>
<rect x="688" y="612" width="179" height="49" rx="4" fill="#FBECEF"/>
<rect x="252" y="101" width="179" height="49" rx="4" fill="#003F5C"/>
<rect x="471" y="689" width="179" height="49" rx="4" fill="#003F5C"/>
<rect x="906" y="101" width="179" height="49" rx="4" fill="#003F5C"/>
<rect x="470" y="247" width="179" height="49" rx="4" fill="#0B5678"/>
<rect x="689" y="835" width="179" height="49" rx="4" fill="#0B5678"/>
<rect x="34" y="835" width="179" height="49" rx="4" fill="#0B5678"/>
<rect x="252" y="320" width="179" height="49" rx="4" fill="#003F5C"/>
<rect x="471" y="908" width="179" height="49" rx="4" fill="#003F5C"/>
<rect x="906" y="320" width="179" height="49" rx="4" fill="#003F5C"/>
<rect x="470" y="466" width="179" height="49" rx="4" fill="#0B5678"/>
<rect x="689" y="1054" width="179" height="49" rx="4" fill="#0B5678"/>
<rect x="34" y="1054" width="179" height="49" rx="4" fill="#0B5678"/>
<rect x="34" y="174" width="179" height="49" rx="4" fill="#FBECEF"/>
<rect x="253" y="762" width="179" height="49" rx="4" fill="#FBECEF"/>
<rect x="688" y="174" width="179" height="49" rx="4" fill="#FBECEF"/>
<rect x="907" y="762" width="179" height="49" rx="4" fill="#FBECEF"/>
<rect x="34" y="466" width="179" height="49" rx="4" fill="#FBECEF"/>
<rect x="253" y="1054" width="179" height="49" rx="4" fill="#FBECEF"/>
<rect x="688" y="466" width="179" height="49" rx="4" fill="#FBECEF"/>
<rect x="907" y="1054" width="179" height="49" rx="4" fill="#FBECEF"/>
<rect x="252" y="174" width="179" height="49" rx="4" fill="#003F5C"/>
<rect x="471" y="762" width="179" height="49" rx="4" fill="#003F5C"/>
<rect x="906" y="174" width="179" height="49" rx="4" fill="#003F5C"/>
<rect x="470" y="320" width="179" height="49" rx="4" fill="#0B5678"/>
<rect x="689" y="908" width="179" height="49" rx="4" fill="#0B5678"/>
<rect x="34" y="908" width="179" height="49" rx="4" fill="#0B5678"/>
<rect x="252" y="393" width="179" height="49" rx="4" fill="#003F5C"/>
<rect x="471" y="981" width="179" height="49" rx="4" fill="#003F5C"/>
<rect x="906" y="393" width="179" height="49" rx="4" fill="#003F5C"/>
<rect x="470" y="539" width="179" height="49" rx="4" fill="#0B5678"/>
</g>
<defs>
<clipPath id="clip0">
<rect width="1080" height="1080" fill="white"/>
</clipPath>
</defs>
</svg>
