<svg width="1341" height="255" viewBox="0 0 1341 255" fill="none" xmlns="http://www.w3.org/2000/svg">
<g clip-path="url(#clip0)">
<rect width="1341" height="255" fill="white"/>
<path d="M686 0V255" stroke="#DDEDF2" stroke-width="2"/>
<path d="M86 0V255" stroke="#DDEDF2" stroke-width="2"/>
<path d="M806 0V255" stroke="#DDEDF2" stroke-width="2"/>
<path d="M206 0V255" stroke="#DDEDF2" stroke-width="2"/>
<path d="M926 0V255" stroke="#DDEDF2" stroke-width="2"/>
<path d="M326 0V255" stroke="#DDEDF2" stroke-width="2"/>
<path d="M1046 0V255" stroke="#DDEDF2" stroke-width="2"/>
<path d="M446 0V255" stroke="#DDEDF2" stroke-width="2"/>
<path d="M1166 0V255" stroke="#DDEDF2" stroke-width="2"/>
<path d="M26 0V255" stroke="#DDEDF2" stroke-width="2"/>
<path d="M746 0V255" stroke="#DDEDF2" stroke-width="2"/>
<path d="M146 0V255" stroke="#DDEDF2" stroke-width="2"/>
<path d="M866 0V255" stroke="#DDEDF2" stroke-width="2"/>
<path d="M266 0V255" stroke="#DDEDF2" stroke-width="2"/>
<path d="M986 0V255" stroke="#DDEDF2" stroke-width="2"/>
<path d="M386 0V255" stroke="#DDEDF2" stroke-width="2"/>
<path d="M1106 0V255" stroke="#DDEDF2" stroke-width="2"/>
<path d="M506 0V255" stroke="#DDEDF2" stroke-width="2"/>
<path d="M1226 0V255" stroke="#DDEDF2" stroke-width="2"/>
<path d="M716 0V255" stroke="#DDEDF2" stroke-width="2"/>
<path d="M116 0V255" stroke="#DDEDF2" stroke-width="2"/>
<path d="M836 0V255" stroke="#DDEDF2" stroke-width="2"/>
<path d="M236 0V255" stroke="#DDEDF2" stroke-width="2"/>
<path d="M956 0V255" stroke="#DDEDF2" stroke-width="2"/>
<path d="M356 0V255" stroke="#DDEDF2" stroke-width="2"/>
<path d="M1076 0V255" stroke="#DDEDF2" stroke-width="2"/>
<path d="M476 0V255" stroke="#DDEDF2" stroke-width="2"/>
<path d="M1196 0V255" stroke="#DDEDF2" stroke-width="2"/>
<path d="M56 0V255" stroke="#DDEDF2" stroke-width="2"/>
<path d="M776 0V255" stroke="#DDEDF2" stroke-width="2"/>
<path d="M176 0V255" stroke="#DDEDF2" stroke-width="2"/>
<path d="M896 0V255" stroke="#DDEDF2" stroke-width="2"/>
<path d="M296 0V255" stroke="#DDEDF2" stroke-width="2"/>
<path d="M1016 0V255" stroke="#DDEDF2" stroke-width="2"/>
<path d="M416 0V255" stroke="#DDEDF2" stroke-width="2"/>
<path d="M1136 0V255" stroke="#DDEDF2" stroke-width="2"/>
<path d="M536 0V255" stroke="#DDEDF2" stroke-width="2"/>
<path d="M1256 0V255" stroke="#DDEDF2" stroke-width="2"/>
<path d="M566 0V255" stroke="#DDEDF2" stroke-width="2"/>
<path d="M1286 0V255" stroke="#DDEDF2" stroke-width="2"/>
<path d="M626 0V255" stroke="#DDEDF2" stroke-width="2"/>
<path d="M596 0V255" stroke="#DDEDF2" stroke-width="2"/>
<path d="M1316 0V255" stroke="#DDEDF2" stroke-width="2"/>
<path d="M656 0V255" stroke="#DDEDF2" stroke-width="2"/>
<path d="M0 99L1341 98.9999" stroke="#DDEDF2" stroke-width="2"/>
<path d="M0 39L1341 38.9999" stroke="#DDEDF2" stroke-width="2"/>
<path d="M0 69L1341 68.9999" stroke="#DDEDF2" stroke-width="2"/>
<path d="M0 9L1341 8.99994" stroke="#DDEDF2" stroke-width="2"/>
<path d="M0 219L1341 219" stroke="#DDEDF2" stroke-width="2"/>
<path d="M0 249L1341 249" stroke="#DDEDF2" stroke-width="2"/>
<path d="M0 159L1341 159" stroke="#DDEDF2" stroke-width="2"/>
<path d="M0 189L1341 189" stroke="#DDEDF2" stroke-width="2"/>
<path d="M0 129L1341 129" stroke="#DDEDF2" stroke-width="2"/>
</g>
<defs>
<clipPath id="clip0">
<rect width="1341" height="255" fill="white"/>
</clipPath>
</defs>
</svg>
