<svg width="1080" height="1080" viewBox="0 0 1080 1080" fill="none" xmlns="http://www.w3.org/2000/svg">
<g clip-path="url(#clip0)">
<rect width="1080" height="1080" fill="#F6F9FD"/>
<g clip-path="url(#clip1)">
<path d="M944.164 977.22C944.164 977.22 1074.62 968.213 1165.86 977.22C1165.86 977.22 1014.77 983.322 944.164 977.22Z" fill="#0B5678"/>
<path d="M954.914 1051.6C954.914 1051.6 949.103 1114.95 954.914 1178.29C954.914 1178.29 963.922 1114.07 954.914 1051.6Z" fill="#0B5678"/>
<path d="M1066.49 358.329C1066.49 358.329 1124.31 352.228 1182.42 358.329C1182.42 358.329 1128.96 363.85 1066.49 358.329Z" fill="#FF6631"/>
<path d="M715.494 1040.85C715.494 1040.85 709.683 1205.6 715.494 1250.64C715.494 1250.93 724.211 1085.6 715.494 1040.85Z" fill="white"/>
<path d="M1073.75 482.689C1073.75 482.689 1120.53 478.621 1167.31 482.689C1167.31 482.689 1124.31 486.466 1073.75 482.689Z" fill="#0B5678"/>
<path d="M1073.75 129.078C1073.75 129.078 1120.53 125.01 1167.31 129.078C1167.31 129.078 1124.31 132.855 1073.75 129.078Z" fill="#0B5678"/>
<path d="M996.174 212.178C996.174 212.178 1104.84 206.077 1213.51 212.178C1213.51 212.178 1113.27 217.409 996.174 212.178Z" fill="#FF6631"/>
<path d="M1054.29 1020.8C1054.29 1020.8 1048.47 1185.55 1054.29 1230.59C1054.29 1230.88 1063.29 1065.55 1054.29 1020.8Z" fill="#0B5678"/>
<path d="M374.669 1073.98C374.669 1073.98 432.49 1067.87 490.602 1073.98C490.602 1073.98 436.848 1079.5 374.669 1073.98Z" fill="#FF6631"/>
<path d="M422.611 1047.54C422.611 1047.54 480.432 1041.43 538.544 1047.54C538.544 1047.54 484.79 1052.77 422.611 1047.54Z" fill="#0B5678"/>
<path d="M461.546 938.866C461.546 938.866 455.735 1132.38 461.546 1185.84C461.546 1185.84 470.553 991.457 461.546 938.866Z" fill="white"/>
<path d="M399.366 926.373C399.366 926.373 394.717 1119.89 399.366 1173.35C399.366 1173.35 406.339 978.964 399.366 926.373Z" fill="#FF6631"/>
<path d="M476.655 990.585C476.655 990.585 632.685 984.484 690.506 990.585C690.506 990.585 538.834 996.106 476.655 990.585Z" fill="#0B5678"/>
<path d="M655.058 901.675C655.058 901.675 650.409 994.363 655.058 1019.93C655.058 1019.93 662.031 926.953 655.058 901.675Z" fill="#0B5678"/>
<path d="M616.123 953.103C616.123 953.103 612.346 1035.04 616.123 1057.41C616.123 1057.41 621.934 975.186 616.123 953.103Z" fill="#0B5678"/>
<path d="M671.329 981.288C671.329 981.288 667.552 1063.23 671.329 1085.6C671.329 1085.6 677.14 1003.37 671.329 981.288Z" fill="white"/>
<path d="M805.567 998.722C805.567 998.722 863.389 993.492 921.21 998.722C920.919 998.722 867.747 1003.37 805.567 998.722Z" fill="white"/>
<path d="M759.368 943.514C759.368 943.514 917.723 948.744 961.307 943.514C961.307 943.514 802.371 935.96 759.368 943.514Z" fill="white"/>
<path d="M941.839 747.097C941.839 747.097 936.028 911.844 941.839 956.881C941.839 957.171 950.556 791.843 941.839 747.097Z" fill="white"/>
<path d="M917.142 865.646C917.142 865.646 911.33 1001.34 917.142 1038.82C917.142 1038.53 926.149 902.256 917.142 865.646Z" fill="#FF6631"/>
<path d="M825.325 890.923C825.325 890.923 822.42 953.103 825.325 969.955C825.325 969.955 829.683 907.776 825.325 890.923Z" fill="#0B5678"/>
<path d="M790.749 867.099C790.749 867.099 786.39 959.787 790.749 985.356C790.749 985.356 797.431 892.377 790.749 867.099Z" fill="#0B5678"/>
<path d="M837.819 972.28C837.819 972.28 833.461 1064.97 837.819 1090.54C837.819 1090.54 844.212 997.268 837.819 972.28Z" fill="#FF6631"/>
<path d="M1045.28 909.81C1045.28 909.81 1100.19 904.871 1154.82 909.81C1154.82 909.81 1104.26 914.169 1045.28 909.81Z" fill="#0B5678"/>
<path d="M1029.3 874.652C1029.3 874.652 1087.7 869.422 1146.1 874.652C1146.1 874.652 1092.06 879.301 1029.3 874.652Z" fill="#0B5678"/>
<path d="M223.578 207.53C223.578 207.53 315.104 204.044 349.39 207.53C349.099 207.53 260.188 210.727 223.578 207.53Z" fill="#0B5678"/>
<path d="M268.905 249.371C268.905 249.371 307.84 245.884 346.775 249.371C346.775 249.371 310.745 252.567 268.905 249.371Z" fill="#0B5678"/>
<path d="M364.499 443.754C364.499 443.754 403.434 440.268 442.369 443.754C442.369 443.754 406.63 446.95 364.499 443.754Z" fill="#0B5678"/>
<path d="M396.17 607.92C396.17 607.92 435.105 604.433 474.039 607.92C474.33 607.92 438.301 611.116 396.17 607.92Z" fill="white"/>
<path d="M662.903 349.322C662.903 349.322 701.838 345.835 740.773 349.322C740.773 349.322 704.743 352.518 662.903 349.322Z" fill="#0B5678"/>
<path d="M760.24 430.678C760.24 430.678 799.175 427.192 838.11 430.678C838.11 430.678 802.081 433.875 760.24 430.678Z" fill="#0B5678"/>
<path d="M423.192 219.442C423.192 219.442 478.108 214.502 532.733 219.442C532.733 219.442 482.175 223.8 423.192 219.442Z" fill="#0B5678"/>
<path d="M368.276 548.355C368.276 548.355 423.192 543.416 477.817 548.355C477.817 548.355 427.259 552.714 368.276 548.355Z" fill="#0B5678"/>
<path d="M352.295 513.198C352.295 513.198 410.697 507.967 469.1 513.198C469.1 513.198 415.346 517.846 352.295 513.198Z" fill="#0B5678"/>
<path d="M373.216 243.56C373.216 243.56 428.132 238.62 482.757 243.56C482.757 243.56 432.199 248.208 373.216 243.56Z" fill="#FF6631"/>
<path d="M392.392 678.527C392.392 678.527 431.327 675.04 470.262 678.527C470.553 678.527 434.523 681.433 392.392 678.527Z" fill="white"/>
<path d="M369.729 749.423C369.729 749.423 408.664 745.355 447.598 749.423C447.889 749.423 411.86 753.2 369.729 749.423Z" fill="#0B5678"/>
<path d="M417.671 865.064C417.671 865.064 466.775 860.996 515.589 865.064C515.88 865.064 470.553 868.551 417.671 865.064Z" fill="#0B5678"/>
<path d="M493.798 581.479C493.798 581.479 532.733 577.12 571.668 581.479C571.668 581.479 535.638 585.546 493.798 581.479Z" fill="#0B5678"/>
<path d="M832.88 636.395C832.88 636.395 871.815 632.037 910.75 636.395C911.04 636.395 875.011 640.173 832.88 636.395Z" fill="#FF6631"/>
<path d="M642.854 643.949C642.854 643.949 681.789 639.591 720.724 643.949C720.724 643.949 684.986 648.017 642.854 643.949Z" fill="#0B5678"/>
<path d="M801.79 546.322C801.79 546.322 848.279 541.964 894.478 546.322C894.478 546.322 851.766 550.099 801.79 546.322Z" fill="#FF6631"/>
<path d="M940.968 566.37C940.968 566.37 1001.11 562.012 1060.97 566.37C1060.97 566.37 1005.47 570.438 940.968 566.37Z" fill="#0B5678"/>
<path d="M961.888 713.974C961.888 713.974 1022.03 709.616 1081.89 713.974C1081.89 713.974 1026.39 718.042 961.888 713.974Z" fill="white"/>
<path d="M956.076 790.971C956.076 790.971 1030.17 786.613 1103.97 790.971C1103.97 790.971 1035.69 795.039 956.076 790.971Z" fill="#0B5678"/>
<path d="M988.91 753.49C988.91 753.49 1040.63 749.713 1092.35 753.49C1092.06 753.49 1044.41 756.977 988.91 753.49Z" fill="#0B5678"/>
<path d="M1008.67 681.141C1008.67 681.141 1068.81 676.783 1128.67 681.141C1128.67 681.141 1073.17 685.209 1008.67 681.141Z" fill="#0B5678"/>
<path d="M924.406 616.056C924.406 616.056 970.895 611.698 1017.09 616.056C1017.38 616.056 974.382 619.833 924.406 616.056Z" fill="#FF6631"/>
<path d="M390.068 717.752C390.068 717.752 456.606 713.393 523.144 717.752C523.144 717.752 461.545 721.529 390.068 717.752Z" fill="#0B5678"/>
<path d="M504.838 535.28C504.838 535.28 559.173 530.922 613.507 535.28C613.507 535.28 563.531 539.057 504.838 535.28Z" fill="white"/>
<path d="M417.962 184.576C417.962 184.576 456.896 181.09 495.831 184.576C495.831 184.576 459.802 187.772 417.962 184.576Z" fill="#FF6631"/>
<path d="M631.523 126.174C631.523 126.174 670.457 122.687 709.392 126.174C709.392 126.174 673.363 129.37 631.523 126.174Z" fill="#0B5678"/>
<path d="M605.663 67.771C605.663 67.771 644.598 64.2843 683.532 67.771C683.532 67.771 647.503 70.6766 605.663 67.771Z" fill="#0B5678"/>
<path d="M528.665 50.3374C528.665 50.3374 567.6 46.8507 606.535 50.3374C606.535 50.3374 570.505 53.5335 528.665 50.3374Z" fill="#0B5678"/>
<path d="M1004.89 186.029C1004.89 186.029 1043.83 182.542 1082.76 186.029C1083.05 186.029 1047.02 189.225 1004.89 186.029Z" fill="#0B5678"/>
<path d="M716.656 30.8697C716.656 30.8697 755.591 27.383 794.526 30.8697C794.526 30.8697 758.787 34.0659 716.656 30.8697Z" fill="#FF6631"/>
<path d="M887.214 29.4171C887.214 29.4171 926.149 25.9304 965.084 29.4171C965.084 29.4171 929.055 32.6132 887.214 29.4171Z" fill="#0B5678"/>
<path d="M844.793 174.116C844.793 174.116 883.728 170.63 922.663 174.116C922.663 174.116 886.633 177.313 844.793 174.116Z" fill="#0B5678"/>
<path d="M401.691 -197.509C401.691 -197.509 395.88 -32.7621 401.691 12.2745C401.691 12.2745 410.408 -152.763 401.691 -197.509Z" fill="white"/>
<path d="M499.028 -168.453C499.028 -168.453 493.217 -3.70603 499.028 41.6211C499.028 41.6211 507.745 -123.707 499.028 -168.453Z" fill="#0B5678"/>
<path d="M830.265 -197.509C830.265 -197.509 824.453 -32.7621 830.265 12.2745C830.265 12.2745 838.981 -152.763 830.265 -197.509Z" fill="#0B5678"/>
<path d="M893.607 -134.168C893.607 -134.168 887.796 30.5789 893.607 75.9061C893.607 75.6155 902.323 -89.4219 893.607 -134.168Z" fill="#FF6631"/>
<path d="M1058.64 -180.657C1058.64 -180.657 1052.83 -15.9105 1058.64 29.1261C1058.64 29.1261 1067.36 -135.911 1058.64 -180.657Z" fill="#0B5678"/>
<path d="M904.357 112.227C904.357 112.227 898.546 276.974 904.357 322.01C904.357 322.01 913.365 156.973 904.357 112.227Z" fill="#0B5678"/>
<path d="M732.637 -169.615C732.637 -169.615 726.826 -4.8685 732.637 40.1681C732.637 40.4587 741.645 -124.869 732.637 -169.615Z" fill="#0B5678"/>
<path d="M595.784 -105.692C595.784 -105.692 590.844 31.1609 595.784 68.9336C595.784 68.9336 603.048 -68.5008 595.784 -105.692Z" fill="white"/>
<path d="M1006.34 -124.288C1006.34 -124.288 1001.4 -10.6796 1006.34 20.4102C1006.34 20.4102 1013.9 -93.4889 1006.34 -124.288Z" fill="#0B5678"/>
<path d="M960.145 -18.2345C960.145 -18.2345 955.205 95.374 960.145 126.464C960.145 126.464 967.699 12.5647 960.145 -18.2345Z" fill="#FF6631"/>
<path d="M797.432 85.4954C797.432 85.4954 792.492 199.104 797.432 230.194C797.432 230.194 804.696 116.295 797.432 85.4954Z" fill="#0B5678"/>
<path d="M643.726 -35.9581C643.726 -35.9581 637.915 128.789 643.726 173.825C643.726 174.116 652.733 8.78799 643.726 -35.9581Z" fill="#FF6631"/>
<path d="M983.97 52.9521C983.97 52.9521 979.321 184.866 983.97 221.186C983.97 221.186 991.234 88.6908 983.97 52.9521Z" fill="#0B5678"/>
<path d="M1040.92 112.807C1040.92 112.807 1036.27 244.721 1040.92 281.041C1040.92 281.041 1047.89 148.546 1040.92 112.807Z" fill="#FF6631"/>
<path d="M395.008 102.347C395.008 102.347 389.196 267.094 395.008 312.131C395.008 312.421 404.015 147.093 395.008 102.347Z" fill="#0B5678"/>
<path d="M458.35 103.799C458.35 103.799 453.701 232.226 458.35 267.384C458.35 267.675 465.323 138.666 458.35 103.799Z" fill="#0B5678"/>
<path d="M825.906 305.738C825.906 305.738 820.095 470.485 825.906 515.522C825.906 515.812 834.913 350.484 825.906 305.738Z" fill="#FF6631"/>
<path d="M790.748 305.738C790.748 305.738 786.39 428.354 790.748 462.059C790.748 462.059 797.431 339.153 790.748 305.738Z" fill="#0B5678"/>
<path d="M693.702 539.057C693.702 539.057 687.891 703.804 693.702 748.841C693.702 748.841 702.71 583.804 693.702 539.057Z" fill="#FF6631"/>
<path d="M734.671 773.248C734.671 773.248 730.313 894.992 734.671 928.406C734.671 928.697 741.063 806.372 734.671 773.248Z" fill="#FF6631"/>
<path d="M529.537 487.048C529.537 487.048 523.726 651.795 529.537 696.831C529.537 697.122 538.254 531.794 529.537 487.048Z" fill="#0B5678"/>
<path d="M601.595 456.248C601.595 456.248 595.784 544.578 601.595 568.985C601.595 568.695 610.312 480.074 601.595 456.248Z" fill="white"/>
<path d="M651.861 617.8C651.861 617.8 646.05 706.13 651.861 730.536C651.861 730.536 660.869 641.626 651.861 617.8Z" fill="white"/>
<path d="M874.43 505.062C874.43 505.062 868.619 622.448 874.43 654.7C874.43 654.7 883.437 537.023 874.43 505.062Z" fill="#0B5678"/>
<path d="M1029.3 731.698C1029.3 731.698 1025.52 805.209 1029.3 825.548C1029.3 825.548 1034.82 751.746 1029.3 731.698Z" fill="#FF6631"/>
<path d="M798.594 619.832C798.594 619.832 793.945 691.019 798.594 710.777C798.594 710.777 805.567 639.3 798.594 619.832Z" fill="white"/>
<path d="M609.44 777.025C609.44 777.025 603.629 865.355 609.44 889.762C609.44 889.762 618.447 801.141 609.44 777.025Z" fill="#FF6631"/>
<path d="M431.037 826.129C431.037 826.129 426.388 914.459 431.037 938.866C431.037 938.576 437.72 849.955 431.037 826.129Z" fill="#0B5678"/>
<path d="M503.676 790.971C503.676 790.971 499.027 897.315 503.676 926.662C503.676 926.662 510.65 819.736 503.676 790.971Z" fill="white"/>
<path d="M570.795 678.235C570.795 678.235 567.599 766.565 570.795 790.972C570.795 790.972 575.735 702.351 570.795 678.235Z" fill="#FF6631"/>
<path d="M402.853 657.606C402.853 657.606 397.041 822.353 402.853 867.39C402.853 867.68 411.86 702.352 402.853 657.606Z" fill="#FF6631"/>
<path d="M909.587 591.939C909.587 591.939 903.776 756.686 909.587 801.722C909.587 802.013 918.304 636.685 909.587 591.939Z" fill="#0B5678"/>
<path d="M970.314 509.13C970.314 509.13 964.503 673.877 970.314 718.913C970.314 719.204 979.031 553.876 970.314 509.13Z" fill="white"/>
<path d="M1067.94 571.019C1067.94 571.019 1062.13 735.766 1067.94 780.802C1067.94 780.802 1076.66 615.765 1067.94 571.019Z" fill="#FF6631"/>
<path d="M766.342 666.031C766.342 666.031 760.531 830.778 766.342 875.815C766.342 876.105 775.349 710.777 766.342 666.031Z" fill="#0B5678"/>
<path d="M435.395 405.4C435.395 405.4 565.856 396.393 657.092 405.4C657.092 405.4 506.001 411.502 435.395 405.4Z" fill="#0B5678"/>
<path d="M650.118 318.233C650.118 318.233 780.579 309.225 871.815 318.233C871.815 318.233 720.724 324.625 650.118 318.233Z" fill="#0B5678"/>
<path d="M716.656 104.381C716.656 104.381 847.117 95.3742 938.353 104.381C938.643 104.381 787.262 110.774 716.656 104.381Z" fill="#FF6631"/>
<path d="M367.986 121.815C367.986 121.815 498.447 112.807 589.682 121.815C589.682 121.815 438.592 127.917 367.986 121.815Z" fill="#0B5678"/>
<path d="M667.552 592.519C667.552 592.519 798.013 583.512 889.248 592.519C889.248 592.519 738.158 598.912 667.552 592.519Z" fill="white"/>
<path d="M715.785 697.703C715.785 697.703 846.245 688.696 937.481 697.703C937.481 697.703 786.39 703.805 715.785 697.703Z" fill="#FF6631"/>
<path d="M563.532 854.023C563.532 854.023 693.993 845.015 785.228 854.023C785.519 854.023 634.138 860.124 563.532 854.023Z" fill="white"/>
<path d="M515.59 349.322C515.59 349.322 509.779 394.65 515.59 439.977C515.59 439.977 524.597 393.778 515.59 349.322Z" fill="#0B5678"/>
<path d="M441.787 620.705C441.787 620.705 435.976 666.032 441.787 711.359C441.787 711.359 450.795 665.451 441.787 620.705Z" fill="#0B5678"/>
<path d="M648.956 806.372C648.956 806.372 644.888 838.043 648.956 869.714C648.956 869.714 655.058 837.462 648.956 806.372Z" fill="#0B5678"/>
<path d="M406.92 344.673C406.92 344.673 445.855 341.186 484.79 344.673C484.79 344.673 448.761 347.869 406.92 344.673Z" fill="#0B5678"/>
<path d="M456.025 287.143C456.025 287.143 450.214 332.47 456.025 377.797C456.025 377.797 465.032 331.889 456.025 287.143Z" fill="#0B5678"/>
<path d="M634.428 220.896C634.428 220.896 628.617 385.643 634.428 430.679C634.428 430.679 643.145 265.351 634.428 220.896Z" fill="#FF6631"/>
<path d="M478.979 376.345C478.979 376.345 473.168 468.161 478.979 498.961C478.979 498.961 484.5 407.435 478.979 376.345Z" fill="#0B5678"/>
<path d="M408.955 479.202C408.955 479.202 403.144 571.019 408.955 601.818C408.955 601.818 414.476 510.292 408.955 479.202Z" fill="white"/>
<path d="M-38.7968 63.7042C-38.7968 63.7042 4.20594 59.0553 47.4992 63.7042C47.4992 63.7042 7.4021 67.772 -38.7968 63.7042Z" fill="#FF6631"/>
<path d="M-60.8798 149.418C-60.8798 149.418 -17.8771 144.77 25.4161 149.418C25.1256 149.418 -14.681 153.486 -60.8798 149.418Z" fill="#0B5678"/>
<path d="M203.239 109.903C203.239 109.903 250.019 105.835 296.799 109.903C296.799 109.903 253.796 113.68 203.239 109.903Z" fill="white"/>
<path d="M279.655 177.022C279.655 177.022 326.435 172.954 373.215 177.022C373.215 177.022 329.922 180.799 279.655 177.022Z" fill="#0B5678"/>
<path d="M230.842 383.899C230.842 383.899 288.663 378.669 346.484 383.899C346.484 383.899 293.022 388.548 230.842 383.899Z" fill="#FF6631"/>
<path d="M173.02 480.946C173.02 480.946 230.842 475.716 288.663 480.946C288.663 480.946 235.2 485.885 173.02 480.946Z" fill="#FF6631"/>
<path d="M55.3438 44.2361C55.3438 44.2361 113.165 39.006 170.986 44.2361C170.986 44.2361 117.523 48.885 55.3438 44.2361Z" fill="white"/>
<path d="M206.434 63.704C206.434 63.704 264.256 58.474 322.077 63.704C322.077 63.704 268.614 68.353 206.434 63.704Z" fill="#0B5678"/>
<path d="M281.108 12.5658C281.108 12.5658 338.929 7.33574 396.75 12.5658C396.75 12.5658 343.288 17.2147 281.108 12.5658Z" fill="#0B5678"/>
<path d="M93.4076 247.918C93.4076 247.918 151.229 242.688 209.05 247.918C208.759 247.918 155.587 252.567 93.4076 247.918Z" fill="#FF6631"/>
<path d="M-108.531 404.819C-108.531 404.819 -50.7098 399.589 7.11142 404.819C7.11142 404.819 -46.3514 409.468 -108.531 404.819Z" fill="white"/>
<path d="M100.381 135.18C100.381 135.18 139.315 131.693 178.25 135.18C178.25 135.18 142.221 138.376 100.381 135.18Z" fill="#0B5678"/>
<path d="M311.036 356.878C311.036 356.878 349.971 353.391 388.906 356.878C389.196 356.878 353.167 360.074 311.036 356.878Z" fill="#FF6631"/>
<path d="M141.64 345.546C141.64 345.546 180.575 342.059 219.51 345.546C219.51 345.546 183.771 348.742 141.64 345.546Z" fill="#0B5678"/>
<path d="M307.259 -12.4231C307.259 -12.4231 301.448 77.6501 307.259 102.348C307.259 102.348 315.976 11.9838 307.259 -12.4231Z" fill="white"/>
<path d="M254.668 538.767C254.668 538.767 301.448 534.699 348.228 538.767C348.228 538.767 304.935 542.544 254.668 538.767Z" fill="white"/>
<path d="M263.965 580.607C263.965 580.607 301.447 577.12 338.93 580.607C338.93 580.607 304.353 583.803 263.965 580.607Z" fill="#FF6631"/>
<path d="M307.259 425.158C307.259 425.158 301.448 589.905 307.259 634.941C307.259 635.232 315.976 469.904 307.259 425.158Z" fill="#0B5678"/>
<path d="M334.862 42.4929C334.862 42.4929 329.051 207.24 334.862 252.276C334.862 252.276 343.869 86.9484 334.862 42.4929Z" fill="white"/>
<path d="M234.038 12.2738C234.038 12.2738 228.226 177.021 234.038 222.057C234.038 222.348 242.754 57.0199 234.038 12.2738Z" fill="#FF6631"/>
<path d="M171.858 288.015C171.858 288.015 353.458 293.826 403.434 288.015C403.434 288.015 221.253 279.008 171.858 288.015Z" fill="white"/>
<path d="M-13.5182 193.874C-13.5182 193.874 168.081 199.686 218.057 193.874C218.057 193.874 35.8768 184.867 -13.5182 193.874Z" fill="#0B5678"/>
<path d="M-154.73 349.904C-154.73 349.904 3.62432 355.134 47.2081 349.904C47.4987 349.904 -111.728 342.059 -154.73 349.904Z" fill="white"/>
<path d="M52.1483 447.531C52.1483 447.531 225.321 453.342 272.973 447.531C272.973 447.531 99.2188 438.815 52.1483 447.531Z" fill="white"/>
<path d="M92.5354 -128.066C92.5354 -128.066 86.7242 36.6812 92.5354 81.7178C92.5354 82.0084 101.543 -83.3196 92.5354 -128.066Z" fill="#0B5678"/>
<path d="M27.7408 153.485C27.7408 153.485 21.9296 318.232 27.7408 363.56C27.7408 363.269 36.7481 198.232 27.7408 153.485Z" fill="white"/>
<path d="M3.33445 271.743C3.33445 271.743 -2.47672 407.434 3.33445 444.917C3.33445 444.917 12.0512 308.644 3.33445 271.743Z" fill="#FF6631"/>
<path d="M199.171 317.361C199.171 317.361 195.103 433.875 199.171 465.837C199.171 465.837 205.563 349.032 199.171 317.361Z" fill="white"/>
<path d="M261.35 269.709C261.35 269.709 256.992 416.441 261.35 457.12C261.35 457.12 268.033 309.516 261.35 269.709Z" fill="#0B5678"/>
<path d="M138.735 -2.83435C138.735 -2.83435 134.376 143.898 138.735 184.576C138.735 184.576 145.418 36.9722 138.735 -2.83435Z" fill="#FF6631"/>
<path d="M19.8956 -1.96301C19.8956 -1.96301 16.1183 79.9746 19.8956 102.348C19.8956 102.348 25.7068 20.1195 19.8956 -1.96301Z" fill="white"/>
<path d="M101.834 206.368C101.834 206.368 98.0564 288.306 101.834 310.679C101.834 310.679 107.645 228.451 101.834 206.368Z" fill="#0B5678"/>
<path d="M293.021 236.005C293.021 236.005 289.244 299.637 293.021 317.071C293.021 317.071 298.832 253.148 293.021 236.005Z" fill="#FF6631"/>
<path d="M62.3173 116.295C62.3173 116.295 58.54 198.232 62.3173 220.606C62.3173 220.896 68.1284 138.668 62.3173 116.295Z" fill="#FF6631"/>
<path d="M42.2687 419.638C42.2687 419.638 37.9103 512.326 42.2687 537.895C42.2687 537.895 48.9516 444.917 42.2687 419.638Z" fill="#FF6631"/>
<path d="M327.598 333.052C327.598 333.052 323.82 414.99 327.598 437.363C327.598 437.653 333.409 355.425 327.598 333.052Z" fill="#0B5678"/>
<path d="M114.909 342.349C114.909 342.349 111.132 447.822 114.909 476.878C114.909 476.878 120.72 371.114 114.909 342.349Z" fill="#FF6631"/>
<path d="M77.1362 367.628C77.1362 367.628 73.3589 453.343 77.1362 476.878C77.1362 476.878 82.9474 390.873 77.1362 367.628Z" fill="#0B5678"/>
<path d="M182.9 -96.3951C182.9 -96.3951 177.089 -4.57852 182.9 26.2207C182.9 26.2207 188.42 -65.3053 182.9 -96.3951Z" fill="#0B5678"/>
<path d="M139.316 810.149C139.316 810.149 269.777 801.142 361.012 810.149C361.012 810.149 209.922 816.251 139.316 810.149Z" fill="#0B5678"/>
<path d="M-62.0416 550.97C-62.0416 550.97 46.6274 544.868 155.296 550.97C155.296 550.97 55.0536 556.49 -62.0416 550.97Z" fill="white"/>
<path d="M-38.7968 940.9C-38.7968 940.9 4.20594 936.251 47.4992 940.9C47.4992 940.9 7.4021 944.968 -38.7968 940.9Z" fill="#0B5678"/>
<path d="M-60.8798 1026.61C-60.8798 1026.61 -17.8771 1021.97 25.4161 1026.61C25.1256 1026.61 -14.681 1030.68 -60.8798 1026.61Z" fill="#0B5678"/>
<path d="M193.359 713.393C193.359 713.393 284.885 709.906 319.171 713.393C318.881 713.393 229.97 716.589 193.359 713.393Z" fill="#FF6631"/>
<path d="M248.275 687.823C248.275 687.823 339.801 684.336 374.087 687.823C374.087 687.823 284.886 691.019 248.275 687.823Z" fill="white"/>
<path d="M-66.691 500.412C-66.691 500.412 24.835 496.926 59.1209 500.412C58.8304 500.412 -30.0806 503.609 -66.691 500.412Z" fill="#FF6631"/>
<path d="M-10.3221 693.343C-10.3221 693.343 36.4579 689.275 83.2379 693.343C83.2379 693.343 39.9446 697.12 -10.3221 693.343Z" fill="#0B5678"/>
<path d="M-50.7101 609.954C-50.7101 609.954 -3.93012 605.886 42.8498 609.954C42.8498 609.954 -0.44341 613.441 -50.7101 609.954Z" fill="white"/>
<path d="M99.7998 585.256C99.7998 585.256 146.58 581.188 193.36 585.256C193.36 585.256 150.067 588.743 99.7998 585.256Z" fill="white"/>
<path d="M176.798 651.503C176.798 651.503 223.578 647.436 270.358 651.503C270.358 651.503 227.064 655.281 176.798 651.503Z" fill="white"/>
<path d="M108.517 537.603C108.517 537.603 166.919 533.536 225.612 537.603C225.612 537.603 171.568 541.381 108.517 537.603Z" fill="#FF6631"/>
<path d="M22.5109 776.734C22.5109 776.734 69.2909 772.666 116.071 776.734C116.071 776.734 72.7775 780.511 22.5109 776.734Z" fill="#FF6631"/>
<path d="M114.909 745.063C114.909 745.063 161.689 740.995 208.469 745.063C208.469 745.063 165.175 748.841 114.909 745.063Z" fill="#0B5678"/>
<path d="M203.239 987.099C203.239 987.099 250.019 983.031 296.799 987.099C296.799 987.099 253.796 990.876 203.239 987.099Z" fill="#FF6631"/>
<path d="M279.655 1054.51C279.655 1054.51 326.435 1050.44 373.215 1054.51C373.215 1054.51 329.922 1058.29 279.655 1054.51Z" fill="white"/>
<path d="M55.3438 921.432C55.3438 921.432 113.165 916.202 170.986 921.432C170.986 921.432 117.523 926.081 55.3438 921.432Z" fill="#FF6631"/>
<path d="M206.434 940.9C206.434 940.9 264.256 935.67 322.077 940.9C322.077 940.9 268.614 945.549 206.434 940.9Z" fill="#0B5678"/>
<path d="M281.108 889.762C281.108 889.762 338.929 884.532 396.75 889.762C396.75 889.762 343.288 894.411 281.108 889.762Z" fill="#FF6631"/>
<path d="M68.129 849.954C68.129 849.954 114.909 845.886 161.689 849.954C161.689 849.954 118.396 853.731 68.129 849.954Z" fill="#0B5678"/>
<path d="M100.381 1012.67C100.381 1012.67 139.315 1009.18 178.25 1012.67C178.25 1012.67 142.221 1015.57 100.381 1012.67Z" fill="#0B5678"/>
<path d="M219.51 753.78C219.51 753.78 213.698 799.107 219.51 844.434C219.51 844.434 228.517 798.526 219.51 753.78Z" fill="white"/>
<path d="M207.887 456.538C207.887 456.538 202.076 519.88 207.887 583.222C207.887 583.222 216.604 519.008 207.887 456.538Z" fill="#0B5678"/>
<path d="M79.1701 517.845C79.1701 517.845 73.359 581.187 79.1701 644.529C79.1701 644.529 88.1775 580.315 79.1701 517.845Z" fill="#0B5678"/>
<path d="M6.53093 581.188C6.53093 581.188 0.71975 700.898 6.53093 734.022C6.53093 734.022 15.2477 613.731 6.53093 581.188Z" fill="#FF6631"/>
<path d="M163.722 686.37C163.722 686.37 157.911 760.753 163.722 781.382C163.722 781.092 172.439 706.418 163.722 686.37Z" fill="white"/>
<path d="M307.259 865.064C307.259 865.064 301.448 955.137 307.259 979.835C307.259 979.835 315.976 889.471 307.259 865.064Z" fill="white"/>
<path d="M53.8909 677.363C53.8909 677.363 48.0798 797.073 53.8909 830.197C53.8909 830.197 62.8983 709.906 53.8909 677.363Z" fill="white"/>
<path d="M135.248 492.568C135.248 492.568 129.436 657.315 135.248 702.351C135.248 702.642 144.255 537.314 135.248 492.568Z" fill="#0B5678"/>
<path d="M233.166 522.204C233.166 522.204 227.355 686.951 233.166 731.988C233.166 732.278 242.174 566.95 233.166 522.204Z" fill="#0B5678"/>
<path d="M338.349 625.352C338.349 625.352 332.537 790.099 338.349 835.136C338.349 835.426 347.065 670.098 338.349 625.352Z" fill="#FF6631"/>
<path d="M276.459 645.111C276.459 645.111 271.52 781.673 276.459 819.155C276.459 819.155 283.723 682.302 276.459 645.111Z" fill="#0B5678"/>
<path d="M334.862 919.69C334.862 919.69 329.051 1084.44 334.862 1129.47C334.862 1129.76 343.869 964.436 334.862 919.69Z" fill="#0B5678"/>
<path d="M234.038 889.761C234.038 889.761 228.226 1054.51 234.038 1099.54C234.038 1099.54 242.754 934.507 234.038 889.761Z" fill="white"/>
<path d="M-13.5182 1071.07C-13.5182 1071.07 168.081 1076.88 218.057 1071.07C218.057 1071.07 35.8768 1062.35 -13.5182 1071.07Z" fill="#0B5678"/>
<path d="M92.5354 749.421C92.5354 749.421 86.7242 914.168 92.5354 959.205C92.5354 959.205 101.543 793.877 92.5354 749.421Z" fill="white"/>
<path d="M27.7408 1030.68C27.7408 1030.68 21.9296 1195.43 27.7408 1240.46C27.7408 1240.76 36.7481 1075.43 27.7408 1030.68Z" fill="#FF6631"/>
<path d="M138.735 874.362C138.735 874.362 134.376 1021.09 138.735 1061.77C138.735 1061.77 145.418 914.459 138.735 874.362Z" fill="white"/>
<path d="M19.8956 875.233C19.8956 875.233 16.1183 957.171 19.8956 979.544C19.8956 979.834 25.7068 897.606 19.8956 875.233Z" fill="#FF6631"/>
<path d="M62.3176 993.782C62.3176 993.782 58.5403 1075.72 62.3176 1098.09C62.3176 1098.09 68.1288 1015.86 62.3176 993.782Z" fill="white"/>
<path d="M182.9 780.802C182.9 780.802 177.089 872.618 182.9 903.418C182.9 903.418 188.42 812.182 182.9 780.802Z" fill="#FF6631"/>
<path d="M486.824 306.611C486.824 306.611 578.35 303.125 612.636 306.611C612.345 306.611 523.434 309.807 486.824 306.611Z" fill="#FF6631"/>
<path d="M541.74 281.041C541.74 281.041 633.266 277.554 667.552 281.041C667.552 281.041 578.35 284.237 541.74 281.041Z" fill="#0B5678"/>
<path d="M569.924 238.62C569.924 238.62 564.984 375.183 569.924 412.665C569.924 412.665 577.188 275.521 569.924 238.62Z" fill="#0B5678"/>
<path d="M871.815 436.781C871.815 436.781 1002.28 427.773 1093.51 436.781C1093.8 436.781 942.42 442.882 871.815 436.781Z" fill="white"/>
<path d="M952.299 380.413C952.299 380.413 946.488 425.741 952.299 471.068C952.299 471.068 961.016 425.16 952.299 380.413Z" fill="#0B5678"/>
<path d="M1070.85 251.985C1070.85 251.985 1065.04 416.732 1070.85 462.059C1070.85 462.059 1079.85 296.731 1070.85 251.985Z" fill="#0B5678"/>
<path d="M915.689 407.434C915.689 407.434 909.877 499.251 915.689 530.05C915.689 530.34 921.209 438.814 915.689 407.434Z" fill="#0B5678"/>
<path d="M923.534 337.992C923.534 337.992 1015.06 334.505 1049.35 337.992C1049.06 337.992 960.145 341.188 923.534 337.992Z" fill="#0B5678"/>
<path d="M978.449 312.422C978.449 312.422 1069.98 308.935 1104.26 312.422C1104.26 312.422 1015.06 315.618 978.449 312.422Z" fill="white"/>
<path d="M1006.34 270.001C1006.34 270.001 1001.4 406.564 1006.34 444.046C1006.34 443.755 1013.9 306.902 1006.34 270.001Z" fill="#0B5678"/>
<path d="M561.498 12.5656C561.498 12.5656 619.319 7.3355 677.14 12.5656C676.85 12.5656 623.677 17.2145 561.498 12.5656Z" fill="#0B5678"/>
<path d="M1029.01 33.4849C1029.01 33.4849 1086.83 28.2549 1144.65 33.4849C1144.65 33.4849 1091.19 38.1339 1029.01 33.4849Z" fill="#0B5678"/>
<path d="M764.889 202.299C764.889 202.299 822.71 197.069 880.531 202.299C880.531 202.299 827.069 206.948 764.889 202.299Z" fill="#FF6631"/>
<path d="M693.12 276.683C693.12 276.683 730.021 271.453 766.922 276.683C766.922 276.683 732.927 281.332 693.12 276.683Z" fill="#0B5678"/>
<path d="M894.478 258.959C894.478 258.959 931.379 253.729 968.28 258.959C968.28 258.959 934.285 263.608 894.478 258.959Z" fill="#0B5678"/>
<path d="M781.741 487.047C781.741 487.047 818.642 481.817 855.543 487.047C855.543 487.047 821.548 491.696 781.741 487.047Z" fill="#0B5678"/>
<path d="M857.577 512.617C857.577 512.617 894.478 507.387 931.379 512.617C931.379 512.617 897.384 517.266 857.577 512.617Z" fill="white"/>
<path d="M565.275 485.014C565.275 485.014 617.866 479.784 670.457 485.014C670.457 485.014 621.934 489.663 565.275 485.014Z" fill="#0B5678"/>
<path d="M649.246 513.198C649.246 513.198 701.837 507.967 754.429 513.198C754.429 513.198 705.905 517.846 649.246 513.198Z" fill="#0B5678"/>
<path d="M351.133 44.2361C351.133 44.2361 408.954 39.006 466.776 44.2361C466.485 44.2361 413.313 48.885 351.133 44.2361Z" fill="#0B5678"/>
<path d="M679.465 100.605C679.465 100.605 673.654 190.678 679.465 215.375C679.465 215.375 688.472 125.011 679.465 100.605Z" fill="#0B5678"/>
<path d="M549.004 33.485C549.004 33.485 543.193 123.558 549.004 148.256C549.004 148.256 557.721 57.892 549.004 33.485Z" fill="#FF6631"/>
<path d="M515.59 76.1966C515.59 76.1966 509.779 166.27 515.59 190.967C515.59 190.967 524.597 100.604 515.59 76.1966Z" fill="white"/>
<path d="M427.26 -47.2903C427.26 -47.2903 421.448 42.783 427.26 67.4805C427.26 67.4805 436.267 -22.8833 427.26 -47.2903Z" fill="#0B5678"/>
<path d="M716.075 -47.2903C716.075 -47.2903 711.136 29.4172 716.075 50.628C716.075 50.9186 723.63 -26.37 716.075 -47.2903Z" fill="#FF6631"/>
<path d="M830.555 50.3373C830.555 50.3373 826.488 113.97 830.555 131.403C830.555 131.403 836.657 67.4803 830.555 50.3373Z" fill="#0B5678"/>
<path d="M864.26 156.391C864.26 156.391 859.611 228.159 864.26 247.917C864.26 247.917 871.234 175.859 864.26 156.391Z" fill="#0B5678"/>
<path d="M716.075 418.185C716.075 418.185 711.426 501.575 716.075 524.529C716.075 524.529 723.339 440.848 716.075 418.185Z" fill="#0B5678"/>
</g>
</g>
<defs>
<clipPath id="clip0">
<rect width="1080" height="1080" fill="white"/>
</clipPath>
<clipPath id="clip1">
<rect width="2896" height="2591.49" fill="white" transform="translate(-368 -484)"/>
</clipPath>
</defs>
</svg>
