<svg width="1080" height="1080" viewBox="0 0 1080 1080" fill="none" xmlns="http://www.w3.org/2000/svg">
<g clip-path="url(#clip0)">
<rect width="1080" height="1080" fill="#FF5857"/>
<path d="M218.67 26.016C236.952 17.112 253.518 14.298 268.362 17.58C269.61 17.736 270.624 18.36 271.404 19.452L272.112 22.968C269.142 37.968 259.842 52.11 244.218 65.388L242.112 66.33C231.174 68.202 222.654 64.53 216.564 55.314H216.324C210.546 46.254 210.624 37.11 216.564 27.894L218.67 26.016V26.016ZM300 138.75C289.062 131.406 280.158 119.922 273.282 104.298L272.814 101.958C273.906 91.014 279.69 83.826 290.154 80.388L300 79.218V138.75ZM178.596 0C170.784 11.25 158.358 20.076 141.33 26.484L138.99 26.724C128.046 25.002 121.17 18.75 118.362 7.968L117.654 0H178.596V0ZM0 79.218C6.252 79.374 11.88 82.266 16.872 87.888L18.048 90.234C21.798 110.232 20.154 126.954 13.128 140.394L10.308 142.734L6.798 142.5L0 138.516V79.218ZM117.66 300C117.966 292.968 121.326 286.956 127.74 281.952L130.08 281.016C150.39 278.514 166.956 281.25 179.76 289.218L181.872 292.032L181.404 295.548L178.596 300H117.654H117.66ZM222.894 189.84C218.982 179.688 220.938 170.7 228.75 162.888C229.32 162.294 230.056 161.886 230.862 161.718C250.704 156.558 267.498 157.188 281.25 163.596L283.83 166.176V169.686C277.89 183.906 265.938 195.786 247.968 205.314L245.628 205.782C234.372 205.47 226.794 200.232 222.888 190.08V189.84H222.894ZM270.186 282.42C249.72 284.298 233.154 280.938 220.5 272.34C219.986 271.998 219.552 271.55 219.228 271.025C218.904 270.499 218.697 269.91 218.622 269.298C218.458 268.749 218.415 268.172 218.497 267.605C218.579 267.038 218.783 266.496 219.096 266.016C227.22 252.888 241.044 243.126 260.58 236.718H262.92C273.858 238.752 280.5 245.154 282.84 255.936C284.88 266.718 281.436 275.316 272.532 281.718L270.192 282.42H270.186ZM204.612 203.904C215.544 206.094 222.192 212.58 224.532 223.362V223.596C226.404 234.216 222.81 242.736 213.75 249.138L211.41 249.846C190.782 251.406 174.294 247.812 161.952 239.064C161.438 238.721 161.005 238.271 160.682 237.745C160.359 237.219 160.154 236.629 160.08 236.016C159.921 235.428 159.88 234.815 159.961 234.211C160.041 233.607 160.241 233.026 160.548 232.5C168.828 219.534 182.736 210 202.266 203.904H204.606H204.612ZM65.16 36.324C52.98 52.578 39.462 62.658 24.618 66.564L21.102 66.096L18.99 63.276C14.61 48.594 16.488 31.878 24.618 13.128L26.022 11.25C35.082 4.53 44.304 3.828 53.682 9.138H53.91C63.444 14.922 67.506 23.28 66.102 34.218L65.16 36.33V36.324ZM78.054 107.346C72.582 87.654 72.738 70.86 78.522 56.952C78.7093 56.3819 79.0144 55.8576 79.4175 55.4131C79.8207 54.9686 80.3128 54.6139 80.862 54.372C81.96 53.748 83.13 53.748 84.384 54.372C98.754 59.688 111.024 71.25 121.176 89.064L121.644 91.404C121.644 102.342 116.646 110.076 106.644 114.612C96.492 118.512 87.426 116.796 79.464 109.452L78.054 107.346V107.346ZM212.352 84.138C213.756 104.298 210.24 120.702 201.804 133.362L198.756 135.468L195.24 134.766C182.274 126.486 172.662 112.656 166.41 93.282V90.942C168.6 79.998 175.008 73.44 185.634 71.25H185.868C196.488 69.216 205.008 72.732 211.41 81.798L212.352 84.138V84.138ZM10.08 258.048C25.392 244.608 40.62 237.498 55.782 236.718L59.064 237.888L60.702 241.17C61.956 256.482 56.802 272.502 45.234 289.218L43.362 290.622C33.204 295.47 23.982 294.294 15.702 287.112C7.578 279.612 5.232 270.624 8.67 260.154L10.08 258.048V258.048ZM69.612 193.128C49.296 189.216 34.296 181.404 24.612 169.686C24.1669 169.274 23.8277 168.76 23.623 168.189C23.4183 167.617 23.3542 167.005 23.436 166.404C23.4794 165.775 23.647 165.162 23.9292 164.598C24.2114 164.035 24.6025 163.533 25.08 163.122C36.48 152.814 52.422 147.186 72.888 146.25C73.83 146.25 74.688 146.49 75.468 146.952C85.158 151.956 89.688 159.924 89.064 170.862V171.096C88.128 182.034 82.422 189.294 71.952 192.888L69.612 193.128V193.128ZM150.234 128.67C169.296 135.702 182.736 145.704 190.548 158.67L191.25 162.186L189.138 165C176.328 173.592 159.846 176.64 139.686 174.138L137.346 173.202C128.436 166.482 125.154 157.812 127.5 147.186V146.952C130.158 136.332 136.956 130.152 147.888 128.436L150.234 128.676V128.67ZM103.596 215.388C114.06 211.326 123.126 213.048 130.776 220.548H131.016C138.516 228.36 140.316 237.498 136.404 247.968L134.766 249.846C118.674 262.344 103.044 268.518 87.888 268.362L84.612 267.186C84.1654 266.764 83.8099 266.255 83.5674 265.691C83.3249 265.126 83.2005 264.518 83.202 263.904C82.734 248.436 88.902 232.734 101.718 216.798L103.596 215.388" fill="#003752"/>
<path d="M218.67 626.016C236.952 617.112 253.518 614.298 268.362 617.58C269.61 617.736 270.624 618.36 271.404 619.452L272.112 622.968C269.142 637.968 259.842 652.11 244.218 665.388L242.112 666.33C231.174 668.202 222.654 664.53 216.564 655.314H216.324C210.546 646.254 210.624 637.11 216.564 627.894L218.67 626.016V626.016ZM300 738.75C289.062 731.406 280.158 719.922 273.282 704.298L272.814 701.958C273.906 691.014 279.69 683.826 290.154 680.388L300 679.218V738.75ZM178.596 600C170.784 611.25 158.358 620.076 141.33 626.484L138.99 626.724C128.046 625.002 121.17 618.75 118.362 607.968L117.654 600H178.596V600ZM0 679.218C6.252 679.374 11.88 682.266 16.872 687.888L18.048 690.234C21.798 710.232 20.154 726.954 13.128 740.394L10.308 742.734L6.798 742.5L0 738.516V679.218ZM117.66 900C117.966 892.968 121.326 886.956 127.74 881.952L130.08 881.016C150.39 878.514 166.956 881.25 179.76 889.218L181.872 892.032L181.404 895.548L178.596 900H117.654H117.66ZM222.894 789.84C218.982 779.688 220.938 770.7 228.75 762.888C229.32 762.294 230.056 761.886 230.862 761.718C250.704 756.558 267.498 757.188 281.25 763.596L283.83 766.176V769.686C277.89 783.906 265.938 795.786 247.968 805.314L245.628 805.782C234.372 805.47 226.794 800.232 222.888 790.08V789.84H222.894ZM270.186 882.42C249.72 884.298 233.154 880.938 220.5 872.34C219.986 871.998 219.552 871.55 219.228 871.025C218.904 870.499 218.697 869.91 218.622 869.298C218.458 868.749 218.415 868.172 218.497 867.605C218.579 867.038 218.783 866.496 219.096 866.016C227.22 852.888 241.044 843.126 260.58 836.718H262.92C273.858 838.752 280.5 845.154 282.84 855.936C284.88 866.718 281.436 875.316 272.532 881.718L270.192 882.42H270.186ZM204.612 803.904C215.544 806.094 222.192 812.58 224.532 823.362V823.596C226.404 834.216 222.81 842.736 213.75 849.138L211.41 849.846C190.782 851.406 174.294 847.812 161.952 839.064C161.438 838.721 161.005 838.271 160.682 837.745C160.359 837.219 160.154 836.629 160.08 836.016C159.921 835.428 159.88 834.815 159.961 834.211C160.041 833.607 160.241 833.026 160.548 832.5C168.828 819.534 182.736 810 202.266 803.904H204.606H204.612ZM65.16 636.324C52.98 652.578 39.462 662.658 24.618 666.564L21.102 666.096L18.99 663.276C14.61 648.594 16.488 631.878 24.618 613.128L26.022 611.25C35.082 604.53 44.304 603.828 53.682 609.138H53.91C63.444 614.922 67.506 623.28 66.102 634.218L65.16 636.33V636.324ZM78.054 707.346C72.582 687.654 72.738 670.86 78.522 656.952C78.7093 656.382 79.0144 655.858 79.4175 655.413C79.8207 654.969 80.3128 654.614 80.862 654.372C81.96 653.748 83.13 653.748 84.384 654.372C98.754 659.688 111.024 671.25 121.176 689.064L121.644 691.404C121.644 702.342 116.646 710.076 106.644 714.612C96.492 718.512 87.426 716.796 79.464 709.452L78.054 707.346V707.346ZM212.352 684.138C213.756 704.298 210.24 720.702 201.804 733.362L198.756 735.468L195.24 734.766C182.274 726.486 172.662 712.656 166.41 693.282V690.942C168.6 679.998 175.008 673.44 185.634 671.25H185.868C196.488 669.216 205.008 672.732 211.41 681.798L212.352 684.138V684.138ZM10.08 858.048C25.392 844.608 40.62 837.498 55.782 836.718L59.064 837.888L60.702 841.17C61.956 856.482 56.802 872.502 45.234 889.218L43.362 890.622C33.204 895.47 23.982 894.294 15.702 887.112C7.578 879.612 5.232 870.624 8.67 860.154L10.08 858.048V858.048ZM69.612 793.128C49.296 789.216 34.296 781.404 24.612 769.686C24.1669 769.274 23.8277 768.76 23.623 768.189C23.4183 767.617 23.3542 767.005 23.436 766.404C23.4794 765.775 23.647 765.162 23.9292 764.598C24.2114 764.035 24.6025 763.533 25.08 763.122C36.48 752.814 52.422 747.186 72.888 746.25C73.83 746.25 74.688 746.49 75.468 746.952C85.158 751.956 89.688 759.924 89.064 770.862V771.096C88.128 782.034 82.422 789.294 71.952 792.888L69.612 793.128V793.128ZM150.234 728.67C169.296 735.702 182.736 745.704 190.548 758.67L191.25 762.186L189.138 765C176.328 773.592 159.846 776.64 139.686 774.138L137.346 773.202C128.436 766.482 125.154 757.812 127.5 747.186V746.952C130.158 736.332 136.956 730.152 147.888 728.436L150.234 728.676V728.67ZM103.596 815.388C114.06 811.326 123.126 813.048 130.776 820.548H131.016C138.516 828.36 140.316 837.498 136.404 847.968L134.766 849.846C118.674 862.344 103.044 868.518 87.888 868.362L84.612 867.186C84.1654 866.764 83.8099 866.255 83.5674 865.691C83.3249 865.126 83.2005 864.518 83.202 863.904C82.734 848.436 88.902 832.734 101.718 816.798L103.596 815.388" fill="#003752"/>
<path d="M218.67 326.016C236.952 317.112 253.518 314.298 268.362 317.58C269.61 317.736 270.624 318.36 271.404 319.452L272.112 322.968C269.142 337.968 259.842 352.11 244.218 365.388L242.112 366.33C231.174 368.202 222.654 364.53 216.564 355.314H216.324C210.546 346.254 210.624 337.11 216.564 327.894L218.67 326.016V326.016ZM300 438.75C289.062 431.406 280.158 419.922 273.282 404.298L272.814 401.958C273.906 391.014 279.69 383.826 290.154 380.388L300 379.218V438.75ZM178.596 300C170.784 311.25 158.358 320.076 141.33 326.484L138.99 326.724C128.046 325.002 121.17 318.75 118.362 307.968L117.654 300H178.596V300ZM0 379.218C6.252 379.374 11.88 382.266 16.872 387.888L18.048 390.234C21.798 410.232 20.154 426.954 13.128 440.394L10.308 442.734L6.798 442.5L0 438.516V379.218ZM117.66 600C117.966 592.968 121.326 586.956 127.74 581.952L130.08 581.016C150.39 578.514 166.956 581.25 179.76 589.218L181.872 592.032L181.404 595.548L178.596 600H117.654H117.66ZM222.894 489.84C218.982 479.688 220.938 470.7 228.75 462.888C229.32 462.294 230.056 461.886 230.862 461.718C250.704 456.558 267.498 457.188 281.25 463.596L283.83 466.176V469.686C277.89 483.906 265.938 495.786 247.968 505.314L245.628 505.782C234.372 505.47 226.794 500.232 222.888 490.08V489.84H222.894ZM270.186 582.42C249.72 584.298 233.154 580.938 220.5 572.34C219.986 571.998 219.552 571.55 219.228 571.025C218.904 570.499 218.697 569.91 218.622 569.298C218.458 568.749 218.415 568.172 218.497 567.605C218.579 567.038 218.783 566.496 219.096 566.016C227.22 552.888 241.044 543.126 260.58 536.718H262.92C273.858 538.752 280.5 545.154 282.84 555.936C284.88 566.718 281.436 575.316 272.532 581.718L270.192 582.42H270.186ZM204.612 503.904C215.544 506.094 222.192 512.58 224.532 523.362V523.596C226.404 534.216 222.81 542.736 213.75 549.138L211.41 549.846C190.782 551.406 174.294 547.812 161.952 539.064C161.438 538.721 161.005 538.271 160.682 537.745C160.359 537.219 160.154 536.629 160.08 536.016C159.921 535.428 159.88 534.815 159.961 534.211C160.041 533.607 160.241 533.026 160.548 532.5C168.828 519.534 182.736 510 202.266 503.904H204.606H204.612ZM65.16 336.324C52.98 352.578 39.462 362.658 24.618 366.564L21.102 366.096L18.99 363.276C14.61 348.594 16.488 331.878 24.618 313.128L26.022 311.25C35.082 304.53 44.304 303.828 53.682 309.138H53.91C63.444 314.922 67.506 323.28 66.102 334.218L65.16 336.33V336.324ZM78.054 407.346C72.582 387.654 72.738 370.86 78.522 356.952C78.7093 356.382 79.0144 355.858 79.4175 355.413C79.8207 354.969 80.3128 354.614 80.862 354.372C81.96 353.748 83.13 353.748 84.384 354.372C98.754 359.688 111.024 371.25 121.176 389.064L121.644 391.404C121.644 402.342 116.646 410.076 106.644 414.612C96.492 418.512 87.426 416.796 79.464 409.452L78.054 407.346V407.346ZM212.352 384.138C213.756 404.298 210.24 420.702 201.804 433.362L198.756 435.468L195.24 434.766C182.274 426.486 172.662 412.656 166.41 393.282V390.942C168.6 379.998 175.008 373.44 185.634 371.25H185.868C196.488 369.216 205.008 372.732 211.41 381.798L212.352 384.138V384.138ZM10.08 558.048C25.392 544.608 40.62 537.498 55.782 536.718L59.064 537.888L60.702 541.17C61.956 556.482 56.802 572.502 45.234 589.218L43.362 590.622C33.204 595.47 23.982 594.294 15.702 587.112C7.578 579.612 5.232 570.624 8.67 560.154L10.08 558.048V558.048ZM69.612 493.128C49.296 489.216 34.296 481.404 24.612 469.686C24.1669 469.274 23.8277 468.76 23.623 468.189C23.4183 467.617 23.3542 467.005 23.436 466.404C23.4794 465.775 23.647 465.162 23.9292 464.598C24.2114 464.035 24.6025 463.533 25.08 463.122C36.48 452.814 52.422 447.186 72.888 446.25C73.83 446.25 74.688 446.49 75.468 446.952C85.158 451.956 89.688 459.924 89.064 470.862V471.096C88.128 482.034 82.422 489.294 71.952 492.888L69.612 493.128V493.128ZM150.234 428.67C169.296 435.702 182.736 445.704 190.548 458.67L191.25 462.186L189.138 465C176.328 473.592 159.846 476.64 139.686 474.138L137.346 473.202C128.436 466.482 125.154 457.812 127.5 447.186V446.952C130.158 436.332 136.956 430.152 147.888 428.436L150.234 428.676V428.67ZM103.596 515.388C114.06 511.326 123.126 513.048 130.776 520.548H131.016C138.516 528.36 140.316 537.498 136.404 547.968L134.766 549.846C118.674 562.344 103.044 568.518 87.888 568.362L84.612 567.186C84.1654 566.764 83.8099 566.255 83.5674 565.691C83.3249 565.126 83.2005 564.518 83.202 563.904C82.734 548.436 88.902 532.734 101.718 516.798L103.596 515.388" fill="#003752"/>
<path d="M218.67 926.016C236.952 917.112 253.518 914.298 268.362 917.58C269.61 917.736 270.624 918.36 271.404 919.452L272.112 922.968C269.142 937.968 259.842 952.11 244.218 965.388L242.112 966.33C231.174 968.202 222.654 964.53 216.564 955.314H216.324C210.546 946.254 210.624 937.11 216.564 927.894L218.67 926.016V926.016ZM300 1038.75C289.062 1031.41 280.158 1019.92 273.282 1004.3L272.814 1001.96C273.906 991.014 279.69 983.826 290.154 980.388L300 979.218V1038.75ZM178.596 900C170.784 911.25 158.358 920.076 141.33 926.484L138.99 926.724C128.046 925.002 121.17 918.75 118.362 907.968L117.654 900H178.596V900ZM0 979.218C6.252 979.374 11.88 982.266 16.872 987.888L18.048 990.234C21.798 1010.23 20.154 1026.95 13.128 1040.39L10.308 1042.73L6.798 1042.5L0 1038.52V979.218ZM117.66 1200C117.966 1192.97 121.326 1186.96 127.74 1181.95L130.08 1181.02C150.39 1178.51 166.956 1181.25 179.76 1189.22L181.872 1192.03L181.404 1195.55L178.596 1200H117.654H117.66ZM222.894 1089.84C218.982 1079.69 220.938 1070.7 228.75 1062.89C229.32 1062.29 230.056 1061.89 230.862 1061.72C250.704 1056.56 267.498 1057.19 281.25 1063.6L283.83 1066.18V1069.69C277.89 1083.91 265.938 1095.79 247.968 1105.31L245.628 1105.78C234.372 1105.47 226.794 1100.23 222.888 1090.08V1089.84H222.894ZM270.186 1182.42C249.72 1184.3 233.154 1180.94 220.5 1172.34C219.986 1172 219.552 1171.55 219.228 1171.02C218.904 1170.5 218.697 1169.91 218.622 1169.3C218.458 1168.75 218.415 1168.17 218.497 1167.6C218.579 1167.04 218.783 1166.5 219.096 1166.02C227.22 1152.89 241.044 1143.13 260.58 1136.72H262.92C273.858 1138.75 280.5 1145.15 282.84 1155.94C284.88 1166.72 281.436 1175.32 272.532 1181.72L270.192 1182.42H270.186ZM204.612 1103.9C215.544 1106.09 222.192 1112.58 224.532 1123.36V1123.6C226.404 1134.22 222.81 1142.74 213.75 1149.14L211.41 1149.85C190.782 1151.41 174.294 1147.81 161.952 1139.06C161.438 1138.72 161.005 1138.27 160.682 1137.75C160.359 1137.22 160.154 1136.63 160.08 1136.02C159.921 1135.43 159.88 1134.81 159.961 1134.21C160.041 1133.61 160.241 1133.03 160.548 1132.5C168.828 1119.53 182.736 1110 202.266 1103.9H204.606H204.612ZM65.16 936.324C52.98 952.578 39.462 962.658 24.618 966.564L21.102 966.096L18.99 963.276C14.61 948.594 16.488 931.878 24.618 913.128L26.022 911.25C35.082 904.53 44.304 903.828 53.682 909.138H53.91C63.444 914.922 67.506 923.28 66.102 934.218L65.16 936.33V936.324ZM78.054 1007.35C72.582 987.654 72.738 970.86 78.522 956.952C78.7093 956.382 79.0144 955.858 79.4175 955.413C79.8207 954.969 80.3128 954.614 80.862 954.372C81.96 953.748 83.13 953.748 84.384 954.372C98.754 959.688 111.024 971.25 121.176 989.064L121.644 991.404C121.644 1002.34 116.646 1010.08 106.644 1014.61C96.492 1018.51 87.426 1016.8 79.464 1009.45L78.054 1007.35V1007.35ZM212.352 984.138C213.756 1004.3 210.24 1020.7 201.804 1033.36L198.756 1035.47L195.24 1034.77C182.274 1026.49 172.662 1012.66 166.41 993.282V990.942C168.6 979.998 175.008 973.44 185.634 971.25H185.868C196.488 969.216 205.008 972.732 211.41 981.798L212.352 984.138V984.138ZM10.08 1158.05C25.392 1144.61 40.62 1137.5 55.782 1136.72L59.064 1137.89L60.702 1141.17C61.956 1156.48 56.802 1172.5 45.234 1189.22L43.362 1190.62C33.204 1195.47 23.982 1194.29 15.702 1187.11C7.578 1179.61 5.232 1170.62 8.67 1160.15L10.08 1158.05V1158.05ZM69.612 1093.13C49.296 1089.22 34.296 1081.4 24.612 1069.69C24.1669 1069.27 23.8277 1068.76 23.623 1068.19C23.4183 1067.62 23.3542 1067.01 23.436 1066.4C23.4794 1065.78 23.647 1065.16 23.9292 1064.6C24.2114 1064.03 24.6025 1063.53 25.08 1063.12C36.48 1052.81 52.422 1047.19 72.888 1046.25C73.83 1046.25 74.688 1046.49 75.468 1046.95C85.158 1051.96 89.688 1059.92 89.064 1070.86V1071.1C88.128 1082.03 82.422 1089.29 71.952 1092.89L69.612 1093.13V1093.13ZM150.234 1028.67C169.296 1035.7 182.736 1045.7 190.548 1058.67L191.25 1062.19L189.138 1065C176.328 1073.59 159.846 1076.64 139.686 1074.14L137.346 1073.2C128.436 1066.48 125.154 1057.81 127.5 1047.19V1046.95C130.158 1036.33 136.956 1030.15 147.888 1028.44L150.234 1028.68V1028.67ZM103.596 1115.39C114.06 1111.33 123.126 1113.05 130.776 1120.55H131.016C138.516 1128.36 140.316 1137.5 136.404 1147.97L134.766 1149.85C118.674 1162.34 103.044 1168.52 87.888 1168.36L84.612 1167.19C84.1654 1166.76 83.8099 1166.26 83.5674 1165.69C83.3249 1165.13 83.2005 1164.52 83.202 1163.9C82.734 1148.44 88.902 1132.73 101.718 1116.8L103.596 1115.39" fill="#003752"/>
<path d="M818.67 26.016C836.952 17.112 853.518 14.298 868.362 17.58C869.61 17.736 870.624 18.36 871.404 19.452L872.112 22.968C869.142 37.968 859.842 52.11 844.218 65.388L842.112 66.33C831.174 68.202 822.654 64.53 816.564 55.314H816.324C810.546 46.254 810.624 37.11 816.564 27.894L818.67 26.016V26.016ZM900 138.75C889.062 131.406 880.158 119.922 873.282 104.298L872.814 101.958C873.906 91.014 879.69 83.826 890.154 80.388L900 79.218V138.75ZM778.596 0C770.784 11.25 758.358 20.076 741.33 26.484L738.99 26.724C728.046 25.002 721.17 18.75 718.362 7.968L717.654 0H778.596V0ZM600 79.218C606.252 79.374 611.88 82.266 616.872 87.888L618.048 90.234C621.798 110.232 620.154 126.954 613.128 140.394L610.308 142.734L606.798 142.5L600 138.516V79.218ZM717.66 300C717.966 292.968 721.326 286.956 727.74 281.952L730.08 281.016C750.39 278.514 766.956 281.25 779.76 289.218L781.872 292.032L781.404 295.548L778.596 300H717.654H717.66ZM822.894 189.84C818.982 179.688 820.938 170.7 828.75 162.888C829.32 162.294 830.056 161.886 830.862 161.718C850.704 156.558 867.498 157.188 881.25 163.596L883.83 166.176V169.686C877.89 183.906 865.938 195.786 847.968 205.314L845.628 205.782C834.372 205.47 826.794 200.232 822.888 190.08V189.84H822.894ZM870.186 282.42C849.72 284.298 833.154 280.938 820.5 272.34C819.986 271.998 819.552 271.55 819.228 271.025C818.904 270.499 818.697 269.91 818.622 269.298C818.458 268.749 818.415 268.172 818.497 267.605C818.579 267.038 818.783 266.496 819.096 266.016C827.22 252.888 841.044 243.126 860.58 236.718H862.92C873.858 238.752 880.5 245.154 882.84 255.936C884.88 266.718 881.436 275.316 872.532 281.718L870.192 282.42H870.186ZM804.612 203.904C815.544 206.094 822.192 212.58 824.532 223.362V223.596C826.404 234.216 822.81 242.736 813.75 249.138L811.41 249.846C790.782 251.406 774.294 247.812 761.952 239.064C761.438 238.721 761.005 238.271 760.682 237.745C760.359 237.219 760.154 236.629 760.08 236.016C759.921 235.428 759.88 234.815 759.961 234.211C760.041 233.607 760.241 233.026 760.548 232.5C768.828 219.534 782.736 210 802.266 203.904H804.606H804.612ZM665.16 36.324C652.98 52.578 639.462 62.658 624.618 66.564L621.102 66.096L618.99 63.276C614.61 48.594 616.488 31.878 624.618 13.128L626.022 11.25C635.082 4.53 644.304 3.828 653.682 9.138H653.91C663.444 14.922 667.506 23.28 666.102 34.218L665.16 36.33V36.324ZM678.054 107.346C672.582 87.654 672.738 70.86 678.522 56.952C678.709 56.3819 679.014 55.8576 679.418 55.4131C679.821 54.9686 680.313 54.6139 680.862 54.372C681.96 53.748 683.13 53.748 684.384 54.372C698.754 59.688 711.024 71.25 721.176 89.064L721.644 91.404C721.644 102.342 716.646 110.076 706.644 114.612C696.492 118.512 687.426 116.796 679.464 109.452L678.054 107.346V107.346ZM812.352 84.138C813.756 104.298 810.24 120.702 801.804 133.362L798.756 135.468L795.24 134.766C782.274 126.486 772.662 112.656 766.41 93.282V90.942C768.6 79.998 775.008 73.44 785.634 71.25H785.868C796.488 69.216 805.008 72.732 811.41 81.798L812.352 84.138V84.138ZM610.08 258.048C625.392 244.608 640.62 237.498 655.782 236.718L659.064 237.888L660.702 241.17C661.956 256.482 656.802 272.502 645.234 289.218L643.362 290.622C633.204 295.47 623.982 294.294 615.702 287.112C607.578 279.612 605.232 270.624 608.67 260.154L610.08 258.048V258.048ZM669.612 193.128C649.296 189.216 634.296 181.404 624.612 169.686C624.167 169.274 623.828 168.76 623.623 168.189C623.418 167.617 623.354 167.005 623.436 166.404C623.479 165.775 623.647 165.162 623.929 164.598C624.211 164.035 624.603 163.533 625.08 163.122C636.48 152.814 652.422 147.186 672.888 146.25C673.83 146.25 674.688 146.49 675.468 146.952C685.158 151.956 689.688 159.924 689.064 170.862V171.096C688.128 182.034 682.422 189.294 671.952 192.888L669.612 193.128V193.128ZM750.234 128.67C769.296 135.702 782.736 145.704 790.548 158.67L791.25 162.186L789.138 165C776.328 173.592 759.846 176.64 739.686 174.138L737.346 173.202C728.436 166.482 725.154 157.812 727.5 147.186V146.952C730.158 136.332 736.956 130.152 747.888 128.436L750.234 128.676V128.67ZM703.596 215.388C714.06 211.326 723.126 213.048 730.776 220.548H731.016C738.516 228.36 740.316 237.498 736.404 247.968L734.766 249.846C718.674 262.344 703.044 268.518 687.888 268.362L684.612 267.186C684.165 266.764 683.81 266.255 683.567 265.691C683.325 265.126 683.201 264.518 683.202 263.904C682.734 248.436 688.902 232.734 701.718 216.798L703.596 215.388" fill="#003752"/>
<path d="M818.67 626.016C836.952 617.112 853.518 614.298 868.362 617.58C869.61 617.736 870.624 618.36 871.404 619.452L872.112 622.968C869.142 637.968 859.842 652.11 844.218 665.388L842.112 666.33C831.174 668.202 822.654 664.53 816.564 655.314H816.324C810.546 646.254 810.624 637.11 816.564 627.894L818.67 626.016V626.016ZM900 738.75C889.062 731.406 880.158 719.922 873.282 704.298L872.814 701.958C873.906 691.014 879.69 683.826 890.154 680.388L900 679.218V738.75ZM778.596 600C770.784 611.25 758.358 620.076 741.33 626.484L738.99 626.724C728.046 625.002 721.17 618.75 718.362 607.968L717.654 600H778.596V600ZM600 679.218C606.252 679.374 611.88 682.266 616.872 687.888L618.048 690.234C621.798 710.232 620.154 726.954 613.128 740.394L610.308 742.734L606.798 742.5L600 738.516V679.218ZM717.66 900C717.966 892.968 721.326 886.956 727.74 881.952L730.08 881.016C750.39 878.514 766.956 881.25 779.76 889.218L781.872 892.032L781.404 895.548L778.596 900H717.654H717.66ZM822.894 789.84C818.982 779.688 820.938 770.7 828.75 762.888C829.32 762.294 830.056 761.886 830.862 761.718C850.704 756.558 867.498 757.188 881.25 763.596L883.83 766.176V769.686C877.89 783.906 865.938 795.786 847.968 805.314L845.628 805.782C834.372 805.47 826.794 800.232 822.888 790.08V789.84H822.894ZM870.186 882.42C849.72 884.298 833.154 880.938 820.5 872.34C819.986 871.998 819.552 871.55 819.228 871.025C818.904 870.499 818.697 869.91 818.622 869.298C818.458 868.749 818.415 868.172 818.497 867.605C818.579 867.038 818.783 866.496 819.096 866.016C827.22 852.888 841.044 843.126 860.58 836.718H862.92C873.858 838.752 880.5 845.154 882.84 855.936C884.88 866.718 881.436 875.316 872.532 881.718L870.192 882.42H870.186ZM804.612 803.904C815.544 806.094 822.192 812.58 824.532 823.362V823.596C826.404 834.216 822.81 842.736 813.75 849.138L811.41 849.846C790.782 851.406 774.294 847.812 761.952 839.064C761.438 838.721 761.005 838.271 760.682 837.745C760.359 837.219 760.154 836.629 760.08 836.016C759.921 835.428 759.88 834.815 759.961 834.211C760.041 833.607 760.241 833.026 760.548 832.5C768.828 819.534 782.736 810 802.266 803.904H804.606H804.612ZM665.16 636.324C652.98 652.578 639.462 662.658 624.618 666.564L621.102 666.096L618.99 663.276C614.61 648.594 616.488 631.878 624.618 613.128L626.022 611.25C635.082 604.53 644.304 603.828 653.682 609.138H653.91C663.444 614.922 667.506 623.28 666.102 634.218L665.16 636.33V636.324ZM678.054 707.346C672.582 687.654 672.738 670.86 678.522 656.952C678.709 656.382 679.014 655.858 679.418 655.413C679.821 654.969 680.313 654.614 680.862 654.372C681.96 653.748 683.13 653.748 684.384 654.372C698.754 659.688 711.024 671.25 721.176 689.064L721.644 691.404C721.644 702.342 716.646 710.076 706.644 714.612C696.492 718.512 687.426 716.796 679.464 709.452L678.054 707.346V707.346ZM812.352 684.138C813.756 704.298 810.24 720.702 801.804 733.362L798.756 735.468L795.24 734.766C782.274 726.486 772.662 712.656 766.41 693.282V690.942C768.6 679.998 775.008 673.44 785.634 671.25H785.868C796.488 669.216 805.008 672.732 811.41 681.798L812.352 684.138V684.138ZM610.08 858.048C625.392 844.608 640.62 837.498 655.782 836.718L659.064 837.888L660.702 841.17C661.956 856.482 656.802 872.502 645.234 889.218L643.362 890.622C633.204 895.47 623.982 894.294 615.702 887.112C607.578 879.612 605.232 870.624 608.67 860.154L610.08 858.048V858.048ZM669.612 793.128C649.296 789.216 634.296 781.404 624.612 769.686C624.167 769.274 623.828 768.76 623.623 768.189C623.418 767.617 623.354 767.005 623.436 766.404C623.479 765.775 623.647 765.162 623.929 764.598C624.211 764.035 624.603 763.533 625.08 763.122C636.48 752.814 652.422 747.186 672.888 746.25C673.83 746.25 674.688 746.49 675.468 746.952C685.158 751.956 689.688 759.924 689.064 770.862V771.096C688.128 782.034 682.422 789.294 671.952 792.888L669.612 793.128V793.128ZM750.234 728.67C769.296 735.702 782.736 745.704 790.548 758.67L791.25 762.186L789.138 765C776.328 773.592 759.846 776.64 739.686 774.138L737.346 773.202C728.436 766.482 725.154 757.812 727.5 747.186V746.952C730.158 736.332 736.956 730.152 747.888 728.436L750.234 728.676V728.67ZM703.596 815.388C714.06 811.326 723.126 813.048 730.776 820.548H731.016C738.516 828.36 740.316 837.498 736.404 847.968L734.766 849.846C718.674 862.344 703.044 868.518 687.888 868.362L684.612 867.186C684.165 866.764 683.81 866.255 683.567 865.691C683.325 865.126 683.201 864.518 683.202 863.904C682.734 848.436 688.902 832.734 701.718 816.798L703.596 815.388" fill="#003752"/>
<path d="M818.67 326.016C836.952 317.112 853.518 314.298 868.362 317.58C869.61 317.736 870.624 318.36 871.404 319.452L872.112 322.968C869.142 337.968 859.842 352.11 844.218 365.388L842.112 366.33C831.174 368.202 822.654 364.53 816.564 355.314H816.324C810.546 346.254 810.624 337.11 816.564 327.894L818.67 326.016V326.016ZM900 438.75C889.062 431.406 880.158 419.922 873.282 404.298L872.814 401.958C873.906 391.014 879.69 383.826 890.154 380.388L900 379.218V438.75ZM778.596 300C770.784 311.25 758.358 320.076 741.33 326.484L738.99 326.724C728.046 325.002 721.17 318.75 718.362 307.968L717.654 300H778.596V300ZM600 379.218C606.252 379.374 611.88 382.266 616.872 387.888L618.048 390.234C621.798 410.232 620.154 426.954 613.128 440.394L610.308 442.734L606.798 442.5L600 438.516V379.218ZM717.66 600C717.966 592.968 721.326 586.956 727.74 581.952L730.08 581.016C750.39 578.514 766.956 581.25 779.76 589.218L781.872 592.032L781.404 595.548L778.596 600H717.654H717.66ZM822.894 489.84C818.982 479.688 820.938 470.7 828.75 462.888C829.32 462.294 830.056 461.886 830.862 461.718C850.704 456.558 867.498 457.188 881.25 463.596L883.83 466.176V469.686C877.89 483.906 865.938 495.786 847.968 505.314L845.628 505.782C834.372 505.47 826.794 500.232 822.888 490.08V489.84H822.894ZM870.186 582.42C849.72 584.298 833.154 580.938 820.5 572.34C819.986 571.998 819.552 571.55 819.228 571.025C818.904 570.499 818.697 569.91 818.622 569.298C818.458 568.749 818.415 568.172 818.497 567.605C818.579 567.038 818.783 566.496 819.096 566.016C827.22 552.888 841.044 543.126 860.58 536.718H862.92C873.858 538.752 880.5 545.154 882.84 555.936C884.88 566.718 881.436 575.316 872.532 581.718L870.192 582.42H870.186ZM804.612 503.904C815.544 506.094 822.192 512.58 824.532 523.362V523.596C826.404 534.216 822.81 542.736 813.75 549.138L811.41 549.846C790.782 551.406 774.294 547.812 761.952 539.064C761.438 538.721 761.005 538.271 760.682 537.745C760.359 537.219 760.154 536.629 760.08 536.016C759.921 535.428 759.88 534.815 759.961 534.211C760.041 533.607 760.241 533.026 760.548 532.5C768.828 519.534 782.736 510 802.266 503.904H804.606H804.612ZM665.16 336.324C652.98 352.578 639.462 362.658 624.618 366.564L621.102 366.096L618.99 363.276C614.61 348.594 616.488 331.878 624.618 313.128L626.022 311.25C635.082 304.53 644.304 303.828 653.682 309.138H653.91C663.444 314.922 667.506 323.28 666.102 334.218L665.16 336.33V336.324ZM678.054 407.346C672.582 387.654 672.738 370.86 678.522 356.952C678.709 356.382 679.014 355.858 679.418 355.413C679.821 354.969 680.313 354.614 680.862 354.372C681.96 353.748 683.13 353.748 684.384 354.372C698.754 359.688 711.024 371.25 721.176 389.064L721.644 391.404C721.644 402.342 716.646 410.076 706.644 414.612C696.492 418.512 687.426 416.796 679.464 409.452L678.054 407.346V407.346ZM812.352 384.138C813.756 404.298 810.24 420.702 801.804 433.362L798.756 435.468L795.24 434.766C782.274 426.486 772.662 412.656 766.41 393.282V390.942C768.6 379.998 775.008 373.44 785.634 371.25H785.868C796.488 369.216 805.008 372.732 811.41 381.798L812.352 384.138V384.138ZM610.08 558.048C625.392 544.608 640.62 537.498 655.782 536.718L659.064 537.888L660.702 541.17C661.956 556.482 656.802 572.502 645.234 589.218L643.362 590.622C633.204 595.47 623.982 594.294 615.702 587.112C607.578 579.612 605.232 570.624 608.67 560.154L610.08 558.048V558.048ZM669.612 493.128C649.296 489.216 634.296 481.404 624.612 469.686C624.167 469.274 623.828 468.76 623.623 468.189C623.418 467.617 623.354 467.005 623.436 466.404C623.479 465.775 623.647 465.162 623.929 464.598C624.211 464.035 624.603 463.533 625.08 463.122C636.48 452.814 652.422 447.186 672.888 446.25C673.83 446.25 674.688 446.49 675.468 446.952C685.158 451.956 689.688 459.924 689.064 470.862V471.096C688.128 482.034 682.422 489.294 671.952 492.888L669.612 493.128V493.128ZM750.234 428.67C769.296 435.702 782.736 445.704 790.548 458.67L791.25 462.186L789.138 465C776.328 473.592 759.846 476.64 739.686 474.138L737.346 473.202C728.436 466.482 725.154 457.812 727.5 447.186V446.952C730.158 436.332 736.956 430.152 747.888 428.436L750.234 428.676V428.67ZM703.596 515.388C714.06 511.326 723.126 513.048 730.776 520.548H731.016C738.516 528.36 740.316 537.498 736.404 547.968L734.766 549.846C718.674 562.344 703.044 568.518 687.888 568.362L684.612 567.186C684.165 566.764 683.81 566.255 683.567 565.691C683.325 565.126 683.201 564.518 683.202 563.904C682.734 548.436 688.902 532.734 701.718 516.798L703.596 515.388" fill="#003752"/>
<path d="M818.67 926.016C836.952 917.112 853.518 914.298 868.362 917.58C869.61 917.736 870.624 918.36 871.404 919.452L872.112 922.968C869.142 937.968 859.842 952.11 844.218 965.388L842.112 966.33C831.174 968.202 822.654 964.53 816.564 955.314H816.324C810.546 946.254 810.624 937.11 816.564 927.894L818.67 926.016V926.016ZM900 1038.75C889.062 1031.41 880.158 1019.92 873.282 1004.3L872.814 1001.96C873.906 991.014 879.69 983.826 890.154 980.388L900 979.218V1038.75ZM778.596 900C770.784 911.25 758.358 920.076 741.33 926.484L738.99 926.724C728.046 925.002 721.17 918.75 718.362 907.968L717.654 900H778.596V900ZM600 979.218C606.252 979.374 611.88 982.266 616.872 987.888L618.048 990.234C621.798 1010.23 620.154 1026.95 613.128 1040.39L610.308 1042.73L606.798 1042.5L600 1038.52V979.218ZM717.66 1200C717.966 1192.97 721.326 1186.96 727.74 1181.95L730.08 1181.02C750.39 1178.51 766.956 1181.25 779.76 1189.22L781.872 1192.03L781.404 1195.55L778.596 1200H717.654H717.66ZM822.894 1089.84C818.982 1079.69 820.938 1070.7 828.75 1062.89C829.32 1062.29 830.056 1061.89 830.862 1061.72C850.704 1056.56 867.498 1057.19 881.25 1063.6L883.83 1066.18V1069.69C877.89 1083.91 865.938 1095.79 847.968 1105.31L845.628 1105.78C834.372 1105.47 826.794 1100.23 822.888 1090.08V1089.84H822.894ZM870.186 1182.42C849.72 1184.3 833.154 1180.94 820.5 1172.34C819.986 1172 819.552 1171.55 819.228 1171.02C818.904 1170.5 818.697 1169.91 818.622 1169.3C818.458 1168.75 818.415 1168.17 818.497 1167.6C818.579 1167.04 818.783 1166.5 819.096 1166.02C827.22 1152.89 841.044 1143.13 860.58 1136.72H862.92C873.858 1138.75 880.5 1145.15 882.84 1155.94C884.88 1166.72 881.436 1175.32 872.532 1181.72L870.192 1182.42H870.186ZM804.612 1103.9C815.544 1106.09 822.192 1112.58 824.532 1123.36V1123.6C826.404 1134.22 822.81 1142.74 813.75 1149.14L811.41 1149.85C790.782 1151.41 774.294 1147.81 761.952 1139.06C761.438 1138.72 761.005 1138.27 760.682 1137.75C760.359 1137.22 760.154 1136.63 760.08 1136.02C759.921 1135.43 759.88 1134.81 759.961 1134.21C760.041 1133.61 760.241 1133.03 760.548 1132.5C768.828 1119.53 782.736 1110 802.266 1103.9H804.606H804.612ZM665.16 936.324C652.98 952.578 639.462 962.658 624.618 966.564L621.102 966.096L618.99 963.276C614.61 948.594 616.488 931.878 624.618 913.128L626.022 911.25C635.082 904.53 644.304 903.828 653.682 909.138H653.91C663.444 914.922 667.506 923.28 666.102 934.218L665.16 936.33V936.324ZM678.054 1007.35C672.582 987.654 672.738 970.86 678.522 956.952C678.709 956.382 679.014 955.858 679.418 955.413C679.821 954.969 680.313 954.614 680.862 954.372C681.96 953.748 683.13 953.748 684.384 954.372C698.754 959.688 711.024 971.25 721.176 989.064L721.644 991.404C721.644 1002.34 716.646 1010.08 706.644 1014.61C696.492 1018.51 687.426 1016.8 679.464 1009.45L678.054 1007.35V1007.35ZM812.352 984.138C813.756 1004.3 810.24 1020.7 801.804 1033.36L798.756 1035.47L795.24 1034.77C782.274 1026.49 772.662 1012.66 766.41 993.282V990.942C768.6 979.998 775.008 973.44 785.634 971.25H785.868C796.488 969.216 805.008 972.732 811.41 981.798L812.352 984.138V984.138ZM610.08 1158.05C625.392 1144.61 640.62 1137.5 655.782 1136.72L659.064 1137.89L660.702 1141.17C661.956 1156.48 656.802 1172.5 645.234 1189.22L643.362 1190.62C633.204 1195.47 623.982 1194.29 615.702 1187.11C607.578 1179.61 605.232 1170.62 608.67 1160.15L610.08 1158.05V1158.05ZM669.612 1093.13C649.296 1089.22 634.296 1081.4 624.612 1069.69C624.167 1069.27 623.828 1068.76 623.623 1068.19C623.418 1067.62 623.354 1067.01 623.436 1066.4C623.479 1065.78 623.647 1065.16 623.929 1064.6C624.211 1064.03 624.603 1063.53 625.08 1063.12C636.48 1052.81 652.422 1047.19 672.888 1046.25C673.83 1046.25 674.688 1046.49 675.468 1046.95C685.158 1051.96 689.688 1059.92 689.064 1070.86V1071.1C688.128 1082.03 682.422 1089.29 671.952 1092.89L669.612 1093.13V1093.13ZM750.234 1028.67C769.296 1035.7 782.736 1045.7 790.548 1058.67L791.25 1062.19L789.138 1065C776.328 1073.59 759.846 1076.64 739.686 1074.14L737.346 1073.2C728.436 1066.48 725.154 1057.81 727.5 1047.19V1046.95C730.158 1036.33 736.956 1030.15 747.888 1028.44L750.234 1028.68V1028.67ZM703.596 1115.39C714.06 1111.33 723.126 1113.05 730.776 1120.55H731.016C738.516 1128.36 740.316 1137.5 736.404 1147.97L734.766 1149.85C718.674 1162.34 703.044 1168.52 687.888 1168.36L684.612 1167.19C684.165 1166.76 683.81 1166.26 683.567 1165.69C683.325 1165.13 683.201 1164.52 683.202 1163.9C682.734 1148.44 688.902 1132.73 701.718 1116.8L703.596 1115.39" fill="#003752"/>
<path d="M518.67 26.016C536.952 17.112 553.518 14.298 568.362 17.58C569.61 17.736 570.624 18.36 571.404 19.452L572.112 22.968C569.142 37.968 559.842 52.11 544.218 65.388L542.112 66.33C531.174 68.202 522.654 64.53 516.564 55.314H516.324C510.546 46.254 510.624 37.11 516.564 27.894L518.67 26.016V26.016ZM600 138.75C589.062 131.406 580.158 119.922 573.282 104.298L572.814 101.958C573.906 91.014 579.69 83.826 590.154 80.388L600 79.218V138.75ZM478.596 0C470.784 11.25 458.358 20.076 441.33 26.484L438.99 26.724C428.046 25.002 421.17 18.75 418.362 7.968L417.654 0H478.596V0ZM300 79.218C306.252 79.374 311.88 82.266 316.872 87.888L318.048 90.234C321.798 110.232 320.154 126.954 313.128 140.394L310.308 142.734L306.798 142.5L300 138.516V79.218ZM417.66 300C417.966 292.968 421.326 286.956 427.74 281.952L430.08 281.016C450.39 278.514 466.956 281.25 479.76 289.218L481.872 292.032L481.404 295.548L478.596 300H417.654H417.66ZM522.894 189.84C518.982 179.688 520.938 170.7 528.75 162.888C529.32 162.294 530.056 161.886 530.862 161.718C550.704 156.558 567.498 157.188 581.25 163.596L583.83 166.176V169.686C577.89 183.906 565.938 195.786 547.968 205.314L545.628 205.782C534.372 205.47 526.794 200.232 522.888 190.08V189.84H522.894ZM570.186 282.42C549.72 284.298 533.154 280.938 520.5 272.34C519.986 271.998 519.552 271.55 519.228 271.025C518.904 270.499 518.697 269.91 518.622 269.298C518.458 268.749 518.415 268.172 518.497 267.605C518.579 267.038 518.783 266.496 519.096 266.016C527.22 252.888 541.044 243.126 560.58 236.718H562.92C573.858 238.752 580.5 245.154 582.84 255.936C584.88 266.718 581.436 275.316 572.532 281.718L570.192 282.42H570.186ZM504.612 203.904C515.544 206.094 522.192 212.58 524.532 223.362V223.596C526.404 234.216 522.81 242.736 513.75 249.138L511.41 249.846C490.782 251.406 474.294 247.812 461.952 239.064C461.438 238.721 461.005 238.271 460.682 237.745C460.359 237.219 460.154 236.629 460.08 236.016C459.921 235.428 459.88 234.815 459.961 234.211C460.041 233.607 460.241 233.026 460.548 232.5C468.828 219.534 482.736 210 502.266 203.904H504.606H504.612ZM365.16 36.324C352.98 52.578 339.462 62.658 324.618 66.564L321.102 66.096L318.99 63.276C314.61 48.594 316.488 31.878 324.618 13.128L326.022 11.25C335.082 4.53 344.304 3.828 353.682 9.138H353.91C363.444 14.922 367.506 23.28 366.102 34.218L365.16 36.33V36.324ZM378.054 107.346C372.582 87.654 372.738 70.86 378.522 56.952C378.709 56.3819 379.014 55.8576 379.418 55.4131C379.821 54.9686 380.313 54.6139 380.862 54.372C381.96 53.748 383.13 53.748 384.384 54.372C398.754 59.688 411.024 71.25 421.176 89.064L421.644 91.404C421.644 102.342 416.646 110.076 406.644 114.612C396.492 118.512 387.426 116.796 379.464 109.452L378.054 107.346V107.346ZM512.352 84.138C513.756 104.298 510.24 120.702 501.804 133.362L498.756 135.468L495.24 134.766C482.274 126.486 472.662 112.656 466.41 93.282V90.942C468.6 79.998 475.008 73.44 485.634 71.25H485.868C496.488 69.216 505.008 72.732 511.41 81.798L512.352 84.138V84.138ZM310.08 258.048C325.392 244.608 340.62 237.498 355.782 236.718L359.064 237.888L360.702 241.17C361.956 256.482 356.802 272.502 345.234 289.218L343.362 290.622C333.204 295.47 323.982 294.294 315.702 287.112C307.578 279.612 305.232 270.624 308.67 260.154L310.08 258.048V258.048ZM369.612 193.128C349.296 189.216 334.296 181.404 324.612 169.686C324.167 169.274 323.828 168.76 323.623 168.189C323.418 167.617 323.354 167.005 323.436 166.404C323.479 165.775 323.647 165.162 323.929 164.598C324.211 164.035 324.603 163.533 325.08 163.122C336.48 152.814 352.422 147.186 372.888 146.25C373.83 146.25 374.688 146.49 375.468 146.952C385.158 151.956 389.688 159.924 389.064 170.862V171.096C388.128 182.034 382.422 189.294 371.952 192.888L369.612 193.128V193.128ZM450.234 128.67C469.296 135.702 482.736 145.704 490.548 158.67L491.25 162.186L489.138 165C476.328 173.592 459.846 176.64 439.686 174.138L437.346 173.202C428.436 166.482 425.154 157.812 427.5 147.186V146.952C430.158 136.332 436.956 130.152 447.888 128.436L450.234 128.676V128.67ZM403.596 215.388C414.06 211.326 423.126 213.048 430.776 220.548H431.016C438.516 228.36 440.316 237.498 436.404 247.968L434.766 249.846C418.674 262.344 403.044 268.518 387.888 268.362L384.612 267.186C384.165 266.764 383.81 266.255 383.567 265.691C383.325 265.126 383.201 264.518 383.202 263.904C382.734 248.436 388.902 232.734 401.718 216.798L403.596 215.388" fill="#003752"/>
<path d="M518.67 626.016C536.952 617.112 553.518 614.298 568.362 617.58C569.61 617.736 570.624 618.36 571.404 619.452L572.112 622.968C569.142 637.968 559.842 652.11 544.218 665.388L542.112 666.33C531.174 668.202 522.654 664.53 516.564 655.314H516.324C510.546 646.254 510.624 637.11 516.564 627.894L518.67 626.016V626.016ZM600 738.75C589.062 731.406 580.158 719.922 573.282 704.298L572.814 701.958C573.906 691.014 579.69 683.826 590.154 680.388L600 679.218V738.75ZM478.596 600C470.784 611.25 458.358 620.076 441.33 626.484L438.99 626.724C428.046 625.002 421.17 618.75 418.362 607.968L417.654 600H478.596V600ZM300 679.218C306.252 679.374 311.88 682.266 316.872 687.888L318.048 690.234C321.798 710.232 320.154 726.954 313.128 740.394L310.308 742.734L306.798 742.5L300 738.516V679.218ZM417.66 900C417.966 892.968 421.326 886.956 427.74 881.952L430.08 881.016C450.39 878.514 466.956 881.25 479.76 889.218L481.872 892.032L481.404 895.548L478.596 900H417.654H417.66ZM522.894 789.84C518.982 779.688 520.938 770.7 528.75 762.888C529.32 762.294 530.056 761.886 530.862 761.718C550.704 756.558 567.498 757.188 581.25 763.596L583.83 766.176V769.686C577.89 783.906 565.938 795.786 547.968 805.314L545.628 805.782C534.372 805.47 526.794 800.232 522.888 790.08V789.84H522.894ZM570.186 882.42C549.72 884.298 533.154 880.938 520.5 872.34C519.986 871.998 519.552 871.55 519.228 871.025C518.904 870.499 518.697 869.91 518.622 869.298C518.458 868.749 518.415 868.172 518.497 867.605C518.579 867.038 518.783 866.496 519.096 866.016C527.22 852.888 541.044 843.126 560.58 836.718H562.92C573.858 838.752 580.5 845.154 582.84 855.936C584.88 866.718 581.436 875.316 572.532 881.718L570.192 882.42H570.186ZM504.612 803.904C515.544 806.094 522.192 812.58 524.532 823.362V823.596C526.404 834.216 522.81 842.736 513.75 849.138L511.41 849.846C490.782 851.406 474.294 847.812 461.952 839.064C461.438 838.721 461.005 838.271 460.682 837.745C460.359 837.219 460.154 836.629 460.08 836.016C459.921 835.428 459.88 834.815 459.961 834.211C460.041 833.607 460.241 833.026 460.548 832.5C468.828 819.534 482.736 810 502.266 803.904H504.606H504.612ZM365.16 636.324C352.98 652.578 339.462 662.658 324.618 666.564L321.102 666.096L318.99 663.276C314.61 648.594 316.488 631.878 324.618 613.128L326.022 611.25C335.082 604.53 344.304 603.828 353.682 609.138H353.91C363.444 614.922 367.506 623.28 366.102 634.218L365.16 636.33V636.324ZM378.054 707.346C372.582 687.654 372.738 670.86 378.522 656.952C378.709 656.382 379.014 655.858 379.418 655.413C379.821 654.969 380.313 654.614 380.862 654.372C381.96 653.748 383.13 653.748 384.384 654.372C398.754 659.688 411.024 671.25 421.176 689.064L421.644 691.404C421.644 702.342 416.646 710.076 406.644 714.612C396.492 718.512 387.426 716.796 379.464 709.452L378.054 707.346V707.346ZM512.352 684.138C513.756 704.298 510.24 720.702 501.804 733.362L498.756 735.468L495.24 734.766C482.274 726.486 472.662 712.656 466.41 693.282V690.942C468.6 679.998 475.008 673.44 485.634 671.25H485.868C496.488 669.216 505.008 672.732 511.41 681.798L512.352 684.138V684.138ZM310.08 858.048C325.392 844.608 340.62 837.498 355.782 836.718L359.064 837.888L360.702 841.17C361.956 856.482 356.802 872.502 345.234 889.218L343.362 890.622C333.204 895.47 323.982 894.294 315.702 887.112C307.578 879.612 305.232 870.624 308.67 860.154L310.08 858.048V858.048ZM369.612 793.128C349.296 789.216 334.296 781.404 324.612 769.686C324.167 769.274 323.828 768.76 323.623 768.189C323.418 767.617 323.354 767.005 323.436 766.404C323.479 765.775 323.647 765.162 323.929 764.598C324.211 764.035 324.603 763.533 325.08 763.122C336.48 752.814 352.422 747.186 372.888 746.25C373.83 746.25 374.688 746.49 375.468 746.952C385.158 751.956 389.688 759.924 389.064 770.862V771.096C388.128 782.034 382.422 789.294 371.952 792.888L369.612 793.128V793.128ZM450.234 728.67C469.296 735.702 482.736 745.704 490.548 758.67L491.25 762.186L489.138 765C476.328 773.592 459.846 776.64 439.686 774.138L437.346 773.202C428.436 766.482 425.154 757.812 427.5 747.186V746.952C430.158 736.332 436.956 730.152 447.888 728.436L450.234 728.676V728.67ZM403.596 815.388C414.06 811.326 423.126 813.048 430.776 820.548H431.016C438.516 828.36 440.316 837.498 436.404 847.968L434.766 849.846C418.674 862.344 403.044 868.518 387.888 868.362L384.612 867.186C384.165 866.764 383.81 866.255 383.567 865.691C383.325 865.126 383.201 864.518 383.202 863.904C382.734 848.436 388.902 832.734 401.718 816.798L403.596 815.388" fill="#003752"/>
<path d="M518.67 326.016C536.952 317.112 553.518 314.298 568.362 317.58C569.61 317.736 570.624 318.36 571.404 319.452L572.112 322.968C569.142 337.968 559.842 352.11 544.218 365.388L542.112 366.33C531.174 368.202 522.654 364.53 516.564 355.314H516.324C510.546 346.254 510.624 337.11 516.564 327.894L518.67 326.016V326.016ZM600 438.75C589.062 431.406 580.158 419.922 573.282 404.298L572.814 401.958C573.906 391.014 579.69 383.826 590.154 380.388L600 379.218V438.75ZM478.596 300C470.784 311.25 458.358 320.076 441.33 326.484L438.99 326.724C428.046 325.002 421.17 318.75 418.362 307.968L417.654 300H478.596V300ZM300 379.218C306.252 379.374 311.88 382.266 316.872 387.888L318.048 390.234C321.798 410.232 320.154 426.954 313.128 440.394L310.308 442.734L306.798 442.5L300 438.516V379.218ZM417.66 600C417.966 592.968 421.326 586.956 427.74 581.952L430.08 581.016C450.39 578.514 466.956 581.25 479.76 589.218L481.872 592.032L481.404 595.548L478.596 600H417.654H417.66ZM522.894 489.84C518.982 479.688 520.938 470.7 528.75 462.888C529.32 462.294 530.056 461.886 530.862 461.718C550.704 456.558 567.498 457.188 581.25 463.596L583.83 466.176V469.686C577.89 483.906 565.938 495.786 547.968 505.314L545.628 505.782C534.372 505.47 526.794 500.232 522.888 490.08V489.84H522.894ZM570.186 582.42C549.72 584.298 533.154 580.938 520.5 572.34C519.986 571.998 519.552 571.55 519.228 571.025C518.904 570.499 518.697 569.91 518.622 569.298C518.458 568.749 518.415 568.172 518.497 567.605C518.579 567.038 518.783 566.496 519.096 566.016C527.22 552.888 541.044 543.126 560.58 536.718H562.92C573.858 538.752 580.5 545.154 582.84 555.936C584.88 566.718 581.436 575.316 572.532 581.718L570.192 582.42H570.186ZM504.612 503.904C515.544 506.094 522.192 512.58 524.532 523.362V523.596C526.404 534.216 522.81 542.736 513.75 549.138L511.41 549.846C490.782 551.406 474.294 547.812 461.952 539.064C461.438 538.721 461.005 538.271 460.682 537.745C460.359 537.219 460.154 536.629 460.08 536.016C459.921 535.428 459.88 534.815 459.961 534.211C460.041 533.607 460.241 533.026 460.548 532.5C468.828 519.534 482.736 510 502.266 503.904H504.606H504.612ZM365.16 336.324C352.98 352.578 339.462 362.658 324.618 366.564L321.102 366.096L318.99 363.276C314.61 348.594 316.488 331.878 324.618 313.128L326.022 311.25C335.082 304.53 344.304 303.828 353.682 309.138H353.91C363.444 314.922 367.506 323.28 366.102 334.218L365.16 336.33V336.324ZM378.054 407.346C372.582 387.654 372.738 370.86 378.522 356.952C378.709 356.382 379.014 355.858 379.418 355.413C379.821 354.969 380.313 354.614 380.862 354.372C381.96 353.748 383.13 353.748 384.384 354.372C398.754 359.688 411.024 371.25 421.176 389.064L421.644 391.404C421.644 402.342 416.646 410.076 406.644 414.612C396.492 418.512 387.426 416.796 379.464 409.452L378.054 407.346V407.346ZM512.352 384.138C513.756 404.298 510.24 420.702 501.804 433.362L498.756 435.468L495.24 434.766C482.274 426.486 472.662 412.656 466.41 393.282V390.942C468.6 379.998 475.008 373.44 485.634 371.25H485.868C496.488 369.216 505.008 372.732 511.41 381.798L512.352 384.138V384.138ZM310.08 558.048C325.392 544.608 340.62 537.498 355.782 536.718L359.064 537.888L360.702 541.17C361.956 556.482 356.802 572.502 345.234 589.218L343.362 590.622C333.204 595.47 323.982 594.294 315.702 587.112C307.578 579.612 305.232 570.624 308.67 560.154L310.08 558.048V558.048ZM369.612 493.128C349.296 489.216 334.296 481.404 324.612 469.686C324.167 469.274 323.828 468.76 323.623 468.189C323.418 467.617 323.354 467.005 323.436 466.404C323.479 465.775 323.647 465.162 323.929 464.598C324.211 464.035 324.603 463.533 325.08 463.122C336.48 452.814 352.422 447.186 372.888 446.25C373.83 446.25 374.688 446.49 375.468 446.952C385.158 451.956 389.688 459.924 389.064 470.862V471.096C388.128 482.034 382.422 489.294 371.952 492.888L369.612 493.128V493.128ZM450.234 428.67C469.296 435.702 482.736 445.704 490.548 458.67L491.25 462.186L489.138 465C476.328 473.592 459.846 476.64 439.686 474.138L437.346 473.202C428.436 466.482 425.154 457.812 427.5 447.186V446.952C430.158 436.332 436.956 430.152 447.888 428.436L450.234 428.676V428.67ZM403.596 515.388C414.06 511.326 423.126 513.048 430.776 520.548H431.016C438.516 528.36 440.316 537.498 436.404 547.968L434.766 549.846C418.674 562.344 403.044 568.518 387.888 568.362L384.612 567.186C384.165 566.764 383.81 566.255 383.567 565.691C383.325 565.126 383.201 564.518 383.202 563.904C382.734 548.436 388.902 532.734 401.718 516.798L403.596 515.388" fill="#003752"/>
<path d="M518.67 926.016C536.952 917.112 553.518 914.298 568.362 917.58C569.61 917.736 570.624 918.36 571.404 919.452L572.112 922.968C569.142 937.968 559.842 952.11 544.218 965.388L542.112 966.33C531.174 968.202 522.654 964.53 516.564 955.314H516.324C510.546 946.254 510.624 937.11 516.564 927.894L518.67 926.016V926.016ZM600 1038.75C589.062 1031.41 580.158 1019.92 573.282 1004.3L572.814 1001.96C573.906 991.014 579.69 983.826 590.154 980.388L600 979.218V1038.75ZM478.596 900C470.784 911.25 458.358 920.076 441.33 926.484L438.99 926.724C428.046 925.002 421.17 918.75 418.362 907.968L417.654 900H478.596V900ZM300 979.218C306.252 979.374 311.88 982.266 316.872 987.888L318.048 990.234C321.798 1010.23 320.154 1026.95 313.128 1040.39L310.308 1042.73L306.798 1042.5L300 1038.52V979.218ZM417.66 1200C417.966 1192.97 421.326 1186.96 427.74 1181.95L430.08 1181.02C450.39 1178.51 466.956 1181.25 479.76 1189.22L481.872 1192.03L481.404 1195.55L478.596 1200H417.654H417.66ZM522.894 1089.84C518.982 1079.69 520.938 1070.7 528.75 1062.89C529.32 1062.29 530.056 1061.89 530.862 1061.72C550.704 1056.56 567.498 1057.19 581.25 1063.6L583.83 1066.18V1069.69C577.89 1083.91 565.938 1095.79 547.968 1105.31L545.628 1105.78C534.372 1105.47 526.794 1100.23 522.888 1090.08V1089.84H522.894ZM570.186 1182.42C549.72 1184.3 533.154 1180.94 520.5 1172.34C519.986 1172 519.552 1171.55 519.228 1171.02C518.904 1170.5 518.697 1169.91 518.622 1169.3C518.458 1168.75 518.415 1168.17 518.497 1167.6C518.579 1167.04 518.783 1166.5 519.096 1166.02C527.22 1152.89 541.044 1143.13 560.58 1136.72H562.92C573.858 1138.75 580.5 1145.15 582.84 1155.94C584.88 1166.72 581.436 1175.32 572.532 1181.72L570.192 1182.42H570.186ZM504.612 1103.9C515.544 1106.09 522.192 1112.58 524.532 1123.36V1123.6C526.404 1134.22 522.81 1142.74 513.75 1149.14L511.41 1149.85C490.782 1151.41 474.294 1147.81 461.952 1139.06C461.438 1138.72 461.005 1138.27 460.682 1137.75C460.359 1137.22 460.154 1136.63 460.08 1136.02C459.921 1135.43 459.88 1134.81 459.961 1134.21C460.041 1133.61 460.241 1133.03 460.548 1132.5C468.828 1119.53 482.736 1110 502.266 1103.9H504.606H504.612ZM365.16 936.324C352.98 952.578 339.462 962.658 324.618 966.564L321.102 966.096L318.99 963.276C314.61 948.594 316.488 931.878 324.618 913.128L326.022 911.25C335.082 904.53 344.304 903.828 353.682 909.138H353.91C363.444 914.922 367.506 923.28 366.102 934.218L365.16 936.33V936.324ZM378.054 1007.35C372.582 987.654 372.738 970.86 378.522 956.952C378.709 956.382 379.014 955.858 379.418 955.413C379.821 954.969 380.313 954.614 380.862 954.372C381.96 953.748 383.13 953.748 384.384 954.372C398.754 959.688 411.024 971.25 421.176 989.064L421.644 991.404C421.644 1002.34 416.646 1010.08 406.644 1014.61C396.492 1018.51 387.426 1016.8 379.464 1009.45L378.054 1007.35V1007.35ZM512.352 984.138C513.756 1004.3 510.24 1020.7 501.804 1033.36L498.756 1035.47L495.24 1034.77C482.274 1026.49 472.662 1012.66 466.41 993.282V990.942C468.6 979.998 475.008 973.44 485.634 971.25H485.868C496.488 969.216 505.008 972.732 511.41 981.798L512.352 984.138V984.138ZM310.08 1158.05C325.392 1144.61 340.62 1137.5 355.782 1136.72L359.064 1137.89L360.702 1141.17C361.956 1156.48 356.802 1172.5 345.234 1189.22L343.362 1190.62C333.204 1195.47 323.982 1194.29 315.702 1187.11C307.578 1179.61 305.232 1170.62 308.67 1160.15L310.08 1158.05V1158.05ZM369.612 1093.13C349.296 1089.22 334.296 1081.4 324.612 1069.69C324.167 1069.27 323.828 1068.76 323.623 1068.19C323.418 1067.62 323.354 1067.01 323.436 1066.4C323.479 1065.78 323.647 1065.16 323.929 1064.6C324.211 1064.03 324.603 1063.53 325.08 1063.12C336.48 1052.81 352.422 1047.19 372.888 1046.25C373.83 1046.25 374.688 1046.49 375.468 1046.95C385.158 1051.96 389.688 1059.92 389.064 1070.86V1071.1C388.128 1082.03 382.422 1089.29 371.952 1092.89L369.612 1093.13V1093.13ZM450.234 1028.67C469.296 1035.7 482.736 1045.7 490.548 1058.67L491.25 1062.19L489.138 1065C476.328 1073.59 459.846 1076.64 439.686 1074.14L437.346 1073.2C428.436 1066.48 425.154 1057.81 427.5 1047.19V1046.95C430.158 1036.33 436.956 1030.15 447.888 1028.44L450.234 1028.68V1028.67ZM403.596 1115.39C414.06 1111.33 423.126 1113.05 430.776 1120.55H431.016C438.516 1128.36 440.316 1137.5 436.404 1147.97L434.766 1149.85C418.674 1162.34 403.044 1168.52 387.888 1168.36L384.612 1167.19C384.165 1166.76 383.81 1166.26 383.567 1165.69C383.325 1165.13 383.201 1164.52 383.202 1163.9C382.734 1148.44 388.902 1132.73 401.718 1116.8L403.596 1115.39" fill="#003752"/>
<path d="M1118.67 26.016C1136.95 17.112 1153.52 14.298 1168.36 17.58C1169.61 17.736 1170.62 18.36 1171.4 19.452L1172.11 22.968C1169.14 37.968 1159.84 52.11 1144.22 65.388L1142.11 66.33C1131.17 68.202 1122.65 64.53 1116.56 55.314H1116.32C1110.55 46.254 1110.62 37.11 1116.56 27.894L1118.67 26.016V26.016ZM1200 138.75C1189.06 131.406 1180.16 119.922 1173.28 104.298L1172.81 101.958C1173.91 91.014 1179.69 83.826 1190.15 80.388L1200 79.218V138.75ZM1078.6 0C1070.78 11.25 1058.36 20.076 1041.33 26.484L1038.99 26.724C1028.05 25.002 1021.17 18.75 1018.36 7.968L1017.65 0H1078.6V0ZM900 79.218C906.252 79.374 911.88 82.266 916.872 87.888L918.048 90.234C921.798 110.232 920.154 126.954 913.128 140.394L910.308 142.734L906.798 142.5L900 138.516V79.218ZM1017.66 300C1017.97 292.968 1021.33 286.956 1027.74 281.952L1030.08 281.016C1050.39 278.514 1066.96 281.25 1079.76 289.218L1081.87 292.032L1081.4 295.548L1078.6 300H1017.65H1017.66ZM1122.89 189.84C1118.98 179.688 1120.94 170.7 1128.75 162.888C1129.32 162.294 1130.06 161.886 1130.86 161.718C1150.7 156.558 1167.5 157.188 1181.25 163.596L1183.83 166.176V169.686C1177.89 183.906 1165.94 195.786 1147.97 205.314L1145.63 205.782C1134.37 205.47 1126.79 200.232 1122.89 190.08V189.84H1122.89ZM1170.19 282.42C1149.72 284.298 1133.15 280.938 1120.5 272.34C1119.99 271.998 1119.55 271.55 1119.23 271.025C1118.9 270.499 1118.7 269.91 1118.62 269.298C1118.46 268.749 1118.42 268.172 1118.5 267.605C1118.58 267.038 1118.78 266.496 1119.1 266.016C1127.22 252.888 1141.04 243.126 1160.58 236.718H1162.92C1173.86 238.752 1180.5 245.154 1182.84 255.936C1184.88 266.718 1181.44 275.316 1172.53 281.718L1170.19 282.42H1170.19ZM1104.61 203.904C1115.54 206.094 1122.19 212.58 1124.53 223.362V223.596C1126.4 234.216 1122.81 242.736 1113.75 249.138L1111.41 249.846C1090.78 251.406 1074.29 247.812 1061.95 239.064C1061.44 238.721 1061.01 238.271 1060.68 237.745C1060.36 237.219 1060.15 236.629 1060.08 236.016C1059.92 235.428 1059.88 234.815 1059.96 234.211C1060.04 233.607 1060.24 233.026 1060.55 232.5C1068.83 219.534 1082.74 210 1102.27 203.904H1104.61H1104.61ZM965.16 36.324C952.98 52.578 939.462 62.658 924.618 66.564L921.102 66.096L918.99 63.276C914.61 48.594 916.488 31.878 924.618 13.128L926.022 11.25C935.082 4.53 944.304 3.828 953.682 9.138H953.91C963.444 14.922 967.506 23.28 966.102 34.218L965.16 36.33V36.324ZM978.054 107.346C972.582 87.654 972.738 70.86 978.522 56.952C978.709 56.3819 979.014 55.8576 979.418 55.4131C979.821 54.9686 980.313 54.6139 980.862 54.372C981.96 53.748 983.13 53.748 984.384 54.372C998.754 59.688 1011.02 71.25 1021.18 89.064L1021.64 91.404C1021.64 102.342 1016.65 110.076 1006.64 114.612C996.492 118.512 987.426 116.796 979.464 109.452L978.054 107.346V107.346ZM1112.35 84.138C1113.76 104.298 1110.24 120.702 1101.8 133.362L1098.76 135.468L1095.24 134.766C1082.27 126.486 1072.66 112.656 1066.41 93.282V90.942C1068.6 79.998 1075.01 73.44 1085.63 71.25H1085.87C1096.49 69.216 1105.01 72.732 1111.41 81.798L1112.35 84.138V84.138ZM910.08 258.048C925.392 244.608 940.62 237.498 955.782 236.718L959.064 237.888L960.702 241.17C961.956 256.482 956.802 272.502 945.234 289.218L943.362 290.622C933.204 295.47 923.982 294.294 915.702 287.112C907.578 279.612 905.232 270.624 908.67 260.154L910.08 258.048V258.048ZM969.612 193.128C949.296 189.216 934.296 181.404 924.612 169.686C924.167 169.274 923.828 168.76 923.623 168.189C923.418 167.617 923.354 167.005 923.436 166.404C923.479 165.775 923.647 165.162 923.929 164.598C924.211 164.035 924.603 163.533 925.08 163.122C936.48 152.814 952.422 147.186 972.888 146.25C973.83 146.25 974.688 146.49 975.468 146.952C985.158 151.956 989.688 159.924 989.064 170.862V171.096C988.128 182.034 982.422 189.294 971.952 192.888L969.612 193.128V193.128ZM1050.23 128.67C1069.3 135.702 1082.74 145.704 1090.55 158.67L1091.25 162.186L1089.14 165C1076.33 173.592 1059.85 176.64 1039.69 174.138L1037.35 173.202C1028.44 166.482 1025.15 157.812 1027.5 147.186V146.952C1030.16 136.332 1036.96 130.152 1047.89 128.436L1050.23 128.676V128.67ZM1003.6 215.388C1014.06 211.326 1023.13 213.048 1030.78 220.548H1031.02C1038.52 228.36 1040.32 237.498 1036.4 247.968L1034.77 249.846C1018.67 262.344 1003.04 268.518 987.888 268.362L984.612 267.186C984.165 266.764 983.81 266.255 983.567 265.691C983.325 265.126 983.201 264.518 983.202 263.904C982.734 248.436 988.902 232.734 1001.72 216.798L1003.6 215.388" fill="#003752"/>
<path d="M1118.67 626.016C1136.95 617.112 1153.52 614.298 1168.36 617.58C1169.61 617.736 1170.62 618.36 1171.4 619.452L1172.11 622.968C1169.14 637.968 1159.84 652.11 1144.22 665.388L1142.11 666.33C1131.17 668.202 1122.65 664.53 1116.56 655.314H1116.32C1110.55 646.254 1110.62 637.11 1116.56 627.894L1118.67 626.016V626.016ZM1200 738.75C1189.06 731.406 1180.16 719.922 1173.28 704.298L1172.81 701.958C1173.91 691.014 1179.69 683.826 1190.15 680.388L1200 679.218V738.75ZM1078.6 600C1070.78 611.25 1058.36 620.076 1041.33 626.484L1038.99 626.724C1028.05 625.002 1021.17 618.75 1018.36 607.968L1017.65 600H1078.6V600ZM900 679.218C906.252 679.374 911.88 682.266 916.872 687.888L918.048 690.234C921.798 710.232 920.154 726.954 913.128 740.394L910.308 742.734L906.798 742.5L900 738.516V679.218ZM1017.66 900C1017.97 892.968 1021.33 886.956 1027.74 881.952L1030.08 881.016C1050.39 878.514 1066.96 881.25 1079.76 889.218L1081.87 892.032L1081.4 895.548L1078.6 900H1017.65H1017.66ZM1122.89 789.84C1118.98 779.688 1120.94 770.7 1128.75 762.888C1129.32 762.294 1130.06 761.886 1130.86 761.718C1150.7 756.558 1167.5 757.188 1181.25 763.596L1183.83 766.176V769.686C1177.89 783.906 1165.94 795.786 1147.97 805.314L1145.63 805.782C1134.37 805.47 1126.79 800.232 1122.89 790.08V789.84H1122.89ZM1170.19 882.42C1149.72 884.298 1133.15 880.938 1120.5 872.34C1119.99 871.998 1119.55 871.55 1119.23 871.025C1118.9 870.499 1118.7 869.91 1118.62 869.298C1118.46 868.749 1118.42 868.172 1118.5 867.605C1118.58 867.038 1118.78 866.496 1119.1 866.016C1127.22 852.888 1141.04 843.126 1160.58 836.718H1162.92C1173.86 838.752 1180.5 845.154 1182.84 855.936C1184.88 866.718 1181.44 875.316 1172.53 881.718L1170.19 882.42H1170.19ZM1104.61 803.904C1115.54 806.094 1122.19 812.58 1124.53 823.362V823.596C1126.4 834.216 1122.81 842.736 1113.75 849.138L1111.41 849.846C1090.78 851.406 1074.29 847.812 1061.95 839.064C1061.44 838.721 1061.01 838.271 1060.68 837.745C1060.36 837.219 1060.15 836.629 1060.08 836.016C1059.92 835.428 1059.88 834.815 1059.96 834.211C1060.04 833.607 1060.24 833.026 1060.55 832.5C1068.83 819.534 1082.74 810 1102.27 803.904H1104.61H1104.61ZM965.16 636.324C952.98 652.578 939.462 662.658 924.618 666.564L921.102 666.096L918.99 663.276C914.61 648.594 916.488 631.878 924.618 613.128L926.022 611.25C935.082 604.53 944.304 603.828 953.682 609.138H953.91C963.444 614.922 967.506 623.28 966.102 634.218L965.16 636.33V636.324ZM978.054 707.346C972.582 687.654 972.738 670.86 978.522 656.952C978.709 656.382 979.014 655.858 979.418 655.413C979.821 654.969 980.313 654.614 980.862 654.372C981.96 653.748 983.13 653.748 984.384 654.372C998.754 659.688 1011.02 671.25 1021.18 689.064L1021.64 691.404C1021.64 702.342 1016.65 710.076 1006.64 714.612C996.492 718.512 987.426 716.796 979.464 709.452L978.054 707.346V707.346ZM1112.35 684.138C1113.76 704.298 1110.24 720.702 1101.8 733.362L1098.76 735.468L1095.24 734.766C1082.27 726.486 1072.66 712.656 1066.41 693.282V690.942C1068.6 679.998 1075.01 673.44 1085.63 671.25H1085.87C1096.49 669.216 1105.01 672.732 1111.41 681.798L1112.35 684.138V684.138ZM910.08 858.048C925.392 844.608 940.62 837.498 955.782 836.718L959.064 837.888L960.702 841.17C961.956 856.482 956.802 872.502 945.234 889.218L943.362 890.622C933.204 895.47 923.982 894.294 915.702 887.112C907.578 879.612 905.232 870.624 908.67 860.154L910.08 858.048V858.048ZM969.612 793.128C949.296 789.216 934.296 781.404 924.612 769.686C924.167 769.274 923.828 768.76 923.623 768.189C923.418 767.617 923.354 767.005 923.436 766.404C923.479 765.775 923.647 765.162 923.929 764.598C924.211 764.035 924.603 763.533 925.08 763.122C936.48 752.814 952.422 747.186 972.888 746.25C973.83 746.25 974.688 746.49 975.468 746.952C985.158 751.956 989.688 759.924 989.064 770.862V771.096C988.128 782.034 982.422 789.294 971.952 792.888L969.612 793.128V793.128ZM1050.23 728.67C1069.3 735.702 1082.74 745.704 1090.55 758.67L1091.25 762.186L1089.14 765C1076.33 773.592 1059.85 776.64 1039.69 774.138L1037.35 773.202C1028.44 766.482 1025.15 757.812 1027.5 747.186V746.952C1030.16 736.332 1036.96 730.152 1047.89 728.436L1050.23 728.676V728.67ZM1003.6 815.388C1014.06 811.326 1023.13 813.048 1030.78 820.548H1031.02C1038.52 828.36 1040.32 837.498 1036.4 847.968L1034.77 849.846C1018.67 862.344 1003.04 868.518 987.888 868.362L984.612 867.186C984.165 866.764 983.81 866.255 983.567 865.691C983.325 865.126 983.201 864.518 983.202 863.904C982.734 848.436 988.902 832.734 1001.72 816.798L1003.6 815.388" fill="#003752"/>
<path d="M1118.67 326.016C1136.95 317.112 1153.52 314.298 1168.36 317.58C1169.61 317.736 1170.62 318.36 1171.4 319.452L1172.11 322.968C1169.14 337.968 1159.84 352.11 1144.22 365.388L1142.11 366.33C1131.17 368.202 1122.65 364.53 1116.56 355.314H1116.32C1110.55 346.254 1110.62 337.11 1116.56 327.894L1118.67 326.016V326.016ZM1200 438.75C1189.06 431.406 1180.16 419.922 1173.28 404.298L1172.81 401.958C1173.91 391.014 1179.69 383.826 1190.15 380.388L1200 379.218V438.75ZM1078.6 300C1070.78 311.25 1058.36 320.076 1041.33 326.484L1038.99 326.724C1028.05 325.002 1021.17 318.75 1018.36 307.968L1017.65 300H1078.6V300ZM900 379.218C906.252 379.374 911.88 382.266 916.872 387.888L918.048 390.234C921.798 410.232 920.154 426.954 913.128 440.394L910.308 442.734L906.798 442.5L900 438.516V379.218ZM1017.66 600C1017.97 592.968 1021.33 586.956 1027.74 581.952L1030.08 581.016C1050.39 578.514 1066.96 581.25 1079.76 589.218L1081.87 592.032L1081.4 595.548L1078.6 600H1017.65H1017.66ZM1122.89 489.84C1118.98 479.688 1120.94 470.7 1128.75 462.888C1129.32 462.294 1130.06 461.886 1130.86 461.718C1150.7 456.558 1167.5 457.188 1181.25 463.596L1183.83 466.176V469.686C1177.89 483.906 1165.94 495.786 1147.97 505.314L1145.63 505.782C1134.37 505.47 1126.79 500.232 1122.89 490.08V489.84H1122.89ZM1170.19 582.42C1149.72 584.298 1133.15 580.938 1120.5 572.34C1119.99 571.998 1119.55 571.55 1119.23 571.025C1118.9 570.499 1118.7 569.91 1118.62 569.298C1118.46 568.749 1118.42 568.172 1118.5 567.605C1118.58 567.038 1118.78 566.496 1119.1 566.016C1127.22 552.888 1141.04 543.126 1160.58 536.718H1162.92C1173.86 538.752 1180.5 545.154 1182.84 555.936C1184.88 566.718 1181.44 575.316 1172.53 581.718L1170.19 582.42H1170.19ZM1104.61 503.904C1115.54 506.094 1122.19 512.58 1124.53 523.362V523.596C1126.4 534.216 1122.81 542.736 1113.75 549.138L1111.41 549.846C1090.78 551.406 1074.29 547.812 1061.95 539.064C1061.44 538.721 1061.01 538.271 1060.68 537.745C1060.36 537.219 1060.15 536.629 1060.08 536.016C1059.92 535.428 1059.88 534.815 1059.96 534.211C1060.04 533.607 1060.24 533.026 1060.55 532.5C1068.83 519.534 1082.74 510 1102.27 503.904H1104.61H1104.61ZM965.16 336.324C952.98 352.578 939.462 362.658 924.618 366.564L921.102 366.096L918.99 363.276C914.61 348.594 916.488 331.878 924.618 313.128L926.022 311.25C935.082 304.53 944.304 303.828 953.682 309.138H953.91C963.444 314.922 967.506 323.28 966.102 334.218L965.16 336.33V336.324ZM978.054 407.346C972.582 387.654 972.738 370.86 978.522 356.952C978.709 356.382 979.014 355.858 979.418 355.413C979.821 354.969 980.313 354.614 980.862 354.372C981.96 353.748 983.13 353.748 984.384 354.372C998.754 359.688 1011.02 371.25 1021.18 389.064L1021.64 391.404C1021.64 402.342 1016.65 410.076 1006.64 414.612C996.492 418.512 987.426 416.796 979.464 409.452L978.054 407.346V407.346ZM1112.35 384.138C1113.76 404.298 1110.24 420.702 1101.8 433.362L1098.76 435.468L1095.24 434.766C1082.27 426.486 1072.66 412.656 1066.41 393.282V390.942C1068.6 379.998 1075.01 373.44 1085.63 371.25H1085.87C1096.49 369.216 1105.01 372.732 1111.41 381.798L1112.35 384.138V384.138ZM910.08 558.048C925.392 544.608 940.62 537.498 955.782 536.718L959.064 537.888L960.702 541.17C961.956 556.482 956.802 572.502 945.234 589.218L943.362 590.622C933.204 595.47 923.982 594.294 915.702 587.112C907.578 579.612 905.232 570.624 908.67 560.154L910.08 558.048V558.048ZM969.612 493.128C949.296 489.216 934.296 481.404 924.612 469.686C924.167 469.274 923.828 468.76 923.623 468.189C923.418 467.617 923.354 467.005 923.436 466.404C923.479 465.775 923.647 465.162 923.929 464.598C924.211 464.035 924.603 463.533 925.08 463.122C936.48 452.814 952.422 447.186 972.888 446.25C973.83 446.25 974.688 446.49 975.468 446.952C985.158 451.956 989.688 459.924 989.064 470.862V471.096C988.128 482.034 982.422 489.294 971.952 492.888L969.612 493.128V493.128ZM1050.23 428.67C1069.3 435.702 1082.74 445.704 1090.55 458.67L1091.25 462.186L1089.14 465C1076.33 473.592 1059.85 476.64 1039.69 474.138L1037.35 473.202C1028.44 466.482 1025.15 457.812 1027.5 447.186V446.952C1030.16 436.332 1036.96 430.152 1047.89 428.436L1050.23 428.676V428.67ZM1003.6 515.388C1014.06 511.326 1023.13 513.048 1030.78 520.548H1031.02C1038.52 528.36 1040.32 537.498 1036.4 547.968L1034.77 549.846C1018.67 562.344 1003.04 568.518 987.888 568.362L984.612 567.186C984.165 566.764 983.81 566.255 983.567 565.691C983.325 565.126 983.201 564.518 983.202 563.904C982.734 548.436 988.902 532.734 1001.72 516.798L1003.6 515.388" fill="#003752"/>
<path d="M1118.67 926.016C1136.95 917.112 1153.52 914.298 1168.36 917.58C1169.61 917.736 1170.62 918.36 1171.4 919.452L1172.11 922.968C1169.14 937.968 1159.84 952.11 1144.22 965.388L1142.11 966.33C1131.17 968.202 1122.65 964.53 1116.56 955.314H1116.32C1110.55 946.254 1110.62 937.11 1116.56 927.894L1118.67 926.016V926.016ZM1200 1038.75C1189.06 1031.41 1180.16 1019.92 1173.28 1004.3L1172.81 1001.96C1173.91 991.014 1179.69 983.826 1190.15 980.388L1200 979.218V1038.75ZM1078.6 900C1070.78 911.25 1058.36 920.076 1041.33 926.484L1038.99 926.724C1028.05 925.002 1021.17 918.75 1018.36 907.968L1017.65 900H1078.6V900ZM900 979.218C906.252 979.374 911.88 982.266 916.872 987.888L918.048 990.234C921.798 1010.23 920.154 1026.95 913.128 1040.39L910.308 1042.73L906.798 1042.5L900 1038.52V979.218ZM1017.66 1200C1017.97 1192.97 1021.33 1186.96 1027.74 1181.95L1030.08 1181.02C1050.39 1178.51 1066.96 1181.25 1079.76 1189.22L1081.87 1192.03L1081.4 1195.55L1078.6 1200H1017.65H1017.66ZM1122.89 1089.84C1118.98 1079.69 1120.94 1070.7 1128.75 1062.89C1129.32 1062.29 1130.06 1061.89 1130.86 1061.72C1150.7 1056.56 1167.5 1057.19 1181.25 1063.6L1183.83 1066.18V1069.69C1177.89 1083.91 1165.94 1095.79 1147.97 1105.31L1145.63 1105.78C1134.37 1105.47 1126.79 1100.23 1122.89 1090.08V1089.84H1122.89ZM1170.19 1182.42C1149.72 1184.3 1133.15 1180.94 1120.5 1172.34C1119.99 1172 1119.55 1171.55 1119.23 1171.02C1118.9 1170.5 1118.7 1169.91 1118.62 1169.3C1118.46 1168.75 1118.42 1168.17 1118.5 1167.6C1118.58 1167.04 1118.78 1166.5 1119.1 1166.02C1127.22 1152.89 1141.04 1143.13 1160.58 1136.72H1162.92C1173.86 1138.75 1180.5 1145.15 1182.84 1155.94C1184.88 1166.72 1181.44 1175.32 1172.53 1181.72L1170.19 1182.42H1170.19ZM1104.61 1103.9C1115.54 1106.09 1122.19 1112.58 1124.53 1123.36V1123.6C1126.4 1134.22 1122.81 1142.74 1113.75 1149.14L1111.41 1149.85C1090.78 1151.41 1074.29 1147.81 1061.95 1139.06C1061.44 1138.72 1061.01 1138.27 1060.68 1137.75C1060.36 1137.22 1060.15 1136.63 1060.08 1136.02C1059.92 1135.43 1059.88 1134.81 1059.96 1134.21C1060.04 1133.61 1060.24 1133.03 1060.55 1132.5C1068.83 1119.53 1082.74 1110 1102.27 1103.9H1104.61H1104.61ZM965.16 936.324C952.98 952.578 939.462 962.658 924.618 966.564L921.102 966.096L918.99 963.276C914.61 948.594 916.488 931.878 924.618 913.128L926.022 911.25C935.082 904.53 944.304 903.828 953.682 909.138H953.91C963.444 914.922 967.506 923.28 966.102 934.218L965.16 936.33V936.324ZM978.054 1007.35C972.582 987.654 972.738 970.86 978.522 956.952C978.709 956.382 979.014 955.858 979.418 955.413C979.821 954.969 980.313 954.614 980.862 954.372C981.96 953.748 983.13 953.748 984.384 954.372C998.754 959.688 1011.02 971.25 1021.18 989.064L1021.64 991.404C1021.64 1002.34 1016.65 1010.08 1006.64 1014.61C996.492 1018.51 987.426 1016.8 979.464 1009.45L978.054 1007.35V1007.35ZM1112.35 984.138C1113.76 1004.3 1110.24 1020.7 1101.8 1033.36L1098.76 1035.47L1095.24 1034.77C1082.27 1026.49 1072.66 1012.66 1066.41 993.282V990.942C1068.6 979.998 1075.01 973.44 1085.63 971.25H1085.87C1096.49 969.216 1105.01 972.732 1111.41 981.798L1112.35 984.138V984.138ZM910.08 1158.05C925.392 1144.61 940.62 1137.5 955.782 1136.72L959.064 1137.89L960.702 1141.17C961.956 1156.48 956.802 1172.5 945.234 1189.22L943.362 1190.62C933.204 1195.47 923.982 1194.29 915.702 1187.11C907.578 1179.61 905.232 1170.62 908.67 1160.15L910.08 1158.05V1158.05ZM969.612 1093.13C949.296 1089.22 934.296 1081.4 924.612 1069.69C924.167 1069.27 923.828 1068.76 923.623 1068.19C923.418 1067.62 923.354 1067.01 923.436 1066.4C923.479 1065.78 923.647 1065.16 923.929 1064.6C924.211 1064.03 924.603 1063.53 925.08 1063.12C936.48 1052.81 952.422 1047.19 972.888 1046.25C973.83 1046.25 974.688 1046.49 975.468 1046.95C985.158 1051.96 989.688 1059.92 989.064 1070.86V1071.1C988.128 1082.03 982.422 1089.29 971.952 1092.89L969.612 1093.13V1093.13ZM1050.23 1028.67C1069.3 1035.7 1082.74 1045.7 1090.55 1058.67L1091.25 1062.19L1089.14 1065C1076.33 1073.59 1059.85 1076.64 1039.69 1074.14L1037.35 1073.2C1028.44 1066.48 1025.15 1057.81 1027.5 1047.19V1046.95C1030.16 1036.33 1036.96 1030.15 1047.89 1028.44L1050.23 1028.68V1028.67ZM1003.6 1115.39C1014.06 1111.33 1023.13 1113.05 1030.78 1120.55H1031.02C1038.52 1128.36 1040.32 1137.5 1036.4 1147.97L1034.77 1149.85C1018.67 1162.34 1003.04 1168.52 987.888 1168.36L984.612 1167.19C984.165 1166.76 983.81 1166.26 983.567 1165.69C983.325 1165.13 983.201 1164.52 983.202 1163.9C982.734 1148.44 988.902 1132.73 1001.72 1116.8L1003.6 1115.39" fill="#003752"/>
</g>
<defs>
<clipPath id="clip0">
<rect width="1080" height="1080" fill="white"/>
</clipPath>
</defs>
</svg>
